<?xml version="1.0" standalone="no"?>
<!DOCTYPE svg PUBLIC "-//W3C//DTD SVG 1.1//EN" "http://www.w3.org/Graphics/SVG/1.1/DTD/svg11.dtd" >
<svg xmlns="http://www.w3.org/2000/svg" xmlns:xlink="http://www.w3.org/1999/xlink" version="1.1">
<metadata></metadata>
<defs>
<font id="triumpitalic" horiz-adv-x="1214" >
<font-face units-per-em="2048" ascent="1536" descent="-512" />
<missing-glyph horiz-adv-x="417" />
<glyph horiz-adv-x="0" />
<glyph horiz-adv-x="682" />
<glyph unicode=" "  horiz-adv-x="417" />
<glyph unicode="&#x09;" horiz-adv-x="417" />
<glyph unicode="&#xa0;" horiz-adv-x="417" />
<glyph unicode="!" horiz-adv-x="479" d="M133 49l19 125q6 49 53 49h131q47 0 41 -49l-19 -125q-6 -49 -53 -49h-131q-47 0 -41 49zM227 520q113 1122 119 1159q6 47 53 47h160q45 0 45 -38q0 -10 -51.5 -302t-103.5 -579l-52 -287q-12 -47 -57 -47h-72q-47 0 -41 47z" />
<glyph unicode="&#x22;" horiz-adv-x="745" d="M276 1051q25 497 29 520q6 47 51 47h136q40 0 40 -39q0 -9 -29.5 -141t-58.5 -260l-30 -127q-9 -47 -54 -47h-41q-25 0 -35 11.5t-8 35.5zM625 1051q24 497 28 520q6 47 54 47h133q43 0 43 -39q0 -8 -29.5 -140t-59.5 -260l-30 -128q-12 -47 -55 -47h-41q-25 0 -34 11 t-9 36z" />
<glyph unicode="#" horiz-adv-x="1525" d="M111 440l34 105q15 51 64 51h199l120 410h-200q-48 0 -33 49l37 104q15 51 61 51h199l106 361q15 47 64 47h104q52 0 37 -47l-106 -361h360l109 361q12 47 61 47h107q52 0 34 -47q-3 -5 -106 -361h244q25 0 34 -13t0 -38l-38 -104q-17 -49 -60 -49h-242l-120 -410h243 q46 0 31 -51l-35 -105q-17 -49 -61 -49h-240l-102 -344q-15 -47 -64 -47h-106q-37 0 -37 33q0 11 104 358h-364l-100 -344q-12 -47 -64 -47h-104q-49 0 -37 47l100 344h-201q-47 0 -32 49zM612 596h363q23 73 64.5 213.5t58.5 196.5h-365z" />
<glyph unicode="$" horiz-adv-x="1075" d="M143 489l4 39q6 54 56 54h172q45 0 39 -52l-4 -41q-10 -97 30.5 -135.5t141.5 -38.5q103 0 156 36.5t63 115.5l4 29q7 51 -7 90.5t-44.5 66t-72 48t-89 40.5t-95.5 38.5t-92 46.5t-78 61t-54.5 85t-20.5 115q0 79 18 139t59.5 110.5t117 81.5t184.5 42l16 111q6 47 55 47 h125q51 0 45 -47l-16 -111q170 -19 239 -96t46 -219l-8 -49q-9 -54 -52 -54h-159q-50 0 -41 54l6 37q14 92 -27 131t-137 39q-115 0 -162 -42t-47 -128q0 -49 31 -87t80.5 -64t110 -51t120.5 -56t109.5 -70.5t80.5 -103t31 -144.5q0 -66 -9 -116.5t-35 -102t-69.5 -87 t-117.5 -61.5t-174 -36l-15 -107q-6 -47 -57 -47h-125q-49 0 -43 47l14 107q-188 15 -255 93t-48 242z" />
<glyph unicode="%" horiz-adv-x="1824" d="M215 999l37 267q29 202 112.5 282t247.5 80t224.5 -80t31.5 -282l-37 -267q-29 -202 -111.5 -282t-246.5 -80t-225.5 80t-32.5 282zM299 37l614 708q26 29 43 38.5t41 9.5h39q28 0 29 -12.5t-18 -35.5l-523 -708q-24 -32 -39.5 -39.5t-44.5 -7.5h-127q-56 0 -14 47z M393 936q-15 -106 6 -147t90 -41t103 41.5t49 146.5l55 393q15 105 -7 147t-91 42t-101.5 -41.5t-47.5 -147.5zM982 837q-2 12 17 35l523 709q24 32 39.5 39.5t44.5 7.5h127q55 0 14 -47l-612 -709q-25 -29 -42 -38t-42 -9h-39q-28 0 -30 12zM1184 352l39 266 q29 202 112.5 282.5t247.5 80.5t224.5 -80.5t31.5 -282.5l-37 -266q-29 -202 -111.5 -282t-246.5 -80q-165 0 -226.5 80t-33.5 282zM1360 289q-15 -105 7 -147t91 -42t102 41.5t48 147.5l55 393q15 106 -6 147t-90 41t-103 -41.5t-49 -146.5z" />
<glyph unicode="&#x26;" horiz-adv-x="1386" d="M143 430l11 64q25 159 87 251t175 134q-99 89 -72 297l6 45q14 100 50 173t103 127t172.5 80.5t252.5 26.5q267 0 381 -101.5t80 -314.5l-7 -36q-6 -50 -53 -50h-178q-45 0 -39 54l8 63q17 120 -36.5 170.5t-178.5 50.5q-132 0 -197.5 -51t-80.5 -158l-19 -127 q-17 -119 30.5 -161.5t186.5 -42.5h17q47 0 41 -52l-6 -43q-6 -51 -56 -51h-108q-139 0 -201.5 -47.5t-79.5 -173.5l-24 -180q-17 -126 31 -174.5t186 -48.5h125q138 0 200.5 48.5t81.5 174.5l70 500q6 53 53 53h268q47 0 41 -49l-6 -52q-6 -51 -55 -51h-53l-47 -334 q-36 -258 -176.5 -356t-462.5 -98q-155 0 -258 21.5t-171 72t-90 135.5t-2 211z" />
<glyph unicode="'" horiz-adv-x="395" d="M276 1051q25 495 29 520q6 47 51 47h136q40 0 40 -39q0 -9 -29.5 -141t-58.5 -260l-30 -127q-9 -47 -54 -47h-41q-25 0 -35 11.5t-8 35.5z" />
<glyph unicode="(" horiz-adv-x="555" d="M178 606q0 307 100 570t277 510q47 63 102 63h86q28 0 31.5 -16t-22.5 -47q-295 -358 -367 -877q-75 -521 121 -877q17 -31 9 -47t-36 -16h-86q-28 0 -51 17t-35 46q-60 137 -94.5 313t-34.5 361z" />
<glyph unicode=")" horiz-adv-x="557" d="M7 -115q-2 16 24 47q184 222 284.5 499t100.5 597q0 189 -36.5 362.5t-103.5 295.5q-17 31 -10 47t35 16h86q28 0 51 -17t35 -46q60 -138 95.5 -314t35.5 -360q0 -307 -100 -570t-277 -510q-47 -63 -104 -63h-86q-28 0 -30 16z" />
<glyph unicode="*" horiz-adv-x="1064" d="M225 932q0 24 33 41l301 160l-256 159q-22 13 -22 35q0 12 14 33l22 31q20 26 41 26q16 0 27 -8l258 -162l45 324q6 47 55 47h33q51 0 45 -47l-47 -324l305 162q13 8 27 8q23 0 35 -26l12 -31q0 -1 3 -9.5t3 -13.5q0 -26 -31 -43l-305 -161l260 -162q19 -13 19 -33 q0 -18 -12 -33l-21 -31q-20 -26 -43 -26q-14 0 -25 8l-260 160l-45 -324q-6 -45 -57 -45h-33q-49 0 -43 45l47 326l-303 -162q-13 -8 -28 -8q-23 0 -35 26l-13 31q-6 12 -6 27z" />
<glyph unicode="+" horiz-adv-x="1306" d="M143 612l11 74q6 51 53 51h463l65 461q6 47 56 47h75q51 0 45 -47l-65 -461h461q45 0 39 -51l-11 -74q-6 -51 -53 -51h-461l-65 -463q-6 -45 -58 -45h-75q-49 0 -43 45l65 463h-463q-45 0 -39 51z" />
<glyph unicode="," horiz-adv-x="401" d="M68 -209q0 7 10 27l82 182h-25q-45 0 -39 49l17 125q6 49 55 49h131q45 0 39 -49l-21 -143q-4 -23 -10 -31l-114 -182q-14 -22 -24.5 -31.5t-18.5 -11.5t-25 -2h-31q-26 0 -26 18z" />
<glyph unicode="-" horiz-adv-x="907" d="M186 610l13 76q6 51 53 51h612q45 0 39 -51l-10 -76q-6 -49 -53 -49h-613q-47 0 -41 49z" />
<glyph unicode="." horiz-adv-x="397" d="M92 49l19 125q6 49 53 49h131q47 0 41 -49l-19 -125q-6 -49 -53 -49h-131q-47 0 -41 49z" />
<glyph unicode="/" horiz-adv-x="1079" d="M49 37q1033 1530 1041 1544q32 47 81 47h66q31 0 31 -18q0 -3 -13 -29q-1032 -1530 -1042 -1544q-20 -27 -37.5 -37t-42.5 -10h-65q-49 0 -19 47z" />
<glyph unicode="0" horiz-adv-x="1183" d="M170 349q0 81 12 186l76 548q22 156 66.5 262t116 168t162.5 88.5t218 26.5q83 0 147 -11t116.5 -37t85 -67t53.5 -102t20.5 -142t-12.5 -186l-78 -548q-22 -156 -66.5 -262t-116.5 -168t-163 -88.5t-217 -26.5q-84 0 -147.5 11t-116 37t-84.5 67t-52 102t-20 142z M432 422q-20 -141 23 -204.5t159 -63.5q115 0 174.5 63t79.5 205l109 774q20 142 -21.5 205t-156.5 63t-176.5 -63.5t-81.5 -204.5z" />
<glyph unicode="1" horiz-adv-x="813" d="M74 49l8 62q6 51 53 51h178l150 1063q6 47 -43 47h-121q-45 0 -39 51l6 53q1 9 6.5 18t9.5 12.5t13 10.5t10 8l254 174q27 19 47 19h131q49 0 43 -49l-198 -1407h176q24 0 33 -12t6 -39l-9 -62q-6 -49 -53 -49h-622q-45 0 -39 49z" />
<glyph unicode="2" horiz-adv-x="1132" d="M88 47l18 131q18 127 72 230.5t126 171.5t156 125t166.5 104t151.5 94t116.5 108.5t57.5 135.5l6 45q21 152 -20 212t-158 60q-115 0 -171 -60t-79 -212l-14 -92q-6 -49 -53 -49h-168q-22 0 -32 9t-7 27q2 15 7 46q10 67 16.5 102t24.5 96.5t40 95.5t62.5 78t93 67 t130.5 39.5t175 16.5q426 0 426 -371q0 -121 -42.5 -218.5t-111.5 -164t-153.5 -123t-172.5 -111.5t-164 -115t-133 -147t-75 -194l-4 -22h631q44 0 38 -51l-8 -62q-6 -49 -53 -49h-856q-45 0 -39 47z" />
<glyph unicode="3" horiz-adv-x="1161" d="M143 457l7 45q3 25 15 37t38 12h174q47 0 41 -49l-15 -107q-19 -132 26.5 -186.5t166.5 -54.5q114 0 171.5 54.5t76.5 186.5l14 103q20 143 -25 199.5t-169 56.5h-62q-47 0 -41 49l8 55q6 51 56 51h69q117 0 175 55.5t81 196.5l11 62q21 131 -22.5 186t-158.5 55 q-114 0 -170 -54t-78 -187l-12 -76q-6 -49 -53 -49h-166q-50 0 -41 49l4 22q14 81 35.5 144.5t62.5 124.5t98.5 101t145 64.5t199.5 24.5q119 0 204 -27.5t131.5 -79t67.5 -115t21 -144.5q0 -305 -211 -431q115 -92 115 -301q0 -56 -4 -103t-18.5 -104.5t-38.5 -102.5 t-66.5 -89.5t-100 -74t-142.5 -48t-190 -18.5q-131 0 -222.5 31.5t-141 93t-65.5 146t-1 196.5z" />
<glyph unicode="4" horiz-adv-x="1157" d="M88 399l8 62q3 20 13 33l768 1075q37 49 81 49h179q45 0 39 -49l-150 -1057h100q45 0 39 -51l-8 -62q-6 -49 -53 -49h-98l-43 -301q-6 -49 -54 -49h-174q-47 0 -41 49l43 301h-610q-45 0 -39 49zM377 512h383l94 678z" />
<glyph unicode="5" horiz-adv-x="1122" d="M131 453l6 49q6 49 56 49h174q45 0 39 -49l-11 -80q-19 -142 24 -205t159 -63q115 0 174 63t79 205l33 229q21 151 -17.5 212t-146.5 61q-166 0 -223 -158q-15 -47 -57 -47h-148q-39 0 -39 37q0 7 46.5 211t92.5 404l46 200q9 47 59 47h699q47 0 41 -49l-9 -62 q-6 -51 -55 -51h-516l-100 -436q114 70 231 70q226 0 309.5 -124t44.5 -386l-14 -95q-21 -141 -65.5 -237.5t-116 -153t-161 -80.5t-212.5 -24q-118 0 -201 23t-140 76t-77.5 143.5t-3.5 220.5z" />
<glyph unicode="6" horiz-adv-x="1169" d="M176 477l94 662q17 120 53 207.5t99.5 152.5t161.5 97t233 32q420 0 420 -354q0 -77 -14.5 -104t-44.5 -27h-168q-50 0 -41 51l6 35q21 128 -21.5 181.5t-158.5 53.5t-171.5 -54t-74.5 -187l-39 -275q132 84 291 84q225 0 311.5 -116t46.5 -373l-6 -39q-22 -147 -67 -246 t-119 -158.5t-169.5 -84.5t-228.5 -25q-249 0 -338 122.5t-55 364.5zM438 426q-21 -151 20.5 -211.5t157.5 -60.5q118 0 178 60.5t80 211.5l23 170q21 151 -20.5 211.5t-159.5 60.5q-219 0 -250 -233z" />
<glyph unicode="7" horiz-adv-x="862" d="M123 20q0 11 8 27l641 1409h-481q-24 0 -33 12t-6 39l8 62q6 49 55 49h701q45 0 39 -49l-13 -96q0 -3 -8 -25l-635 -1401q-21 -47 -69 -47h-176q-31 0 -31 20z" />
<glyph unicode="8" horiz-adv-x="1153" d="M150 424l6 53q36 281 243 379q-140 94 -104 344l4 29q14 97 46.5 168.5t91.5 124.5t151 79.5t217 26.5q242 0 332.5 -101t62.5 -298l-4 -29q-36 -247 -203 -342q180 -97 137 -381l-8 -53q-31 -208 -160.5 -321t-386.5 -113q-132 0 -222.5 30.5t-138 89.5t-62.5 136 t-2 178zM414 395q-18 -132 25 -186.5t159 -54.5q115 0 174.5 55t77.5 186l18 135q18 133 -24.5 187.5t-157.5 54.5q-116 0 -176 -54.5t-78 -187.5zM520 1157q-17 -120 27 -170.5t158 -50.5q116 0 175 50.5t76 170.5l13 84q18 120 -28 171.5t-163 51.5q-115 0 -171 -50.5 t-75 -172.5z" />
<glyph unicode="9" horiz-adv-x="1171" d="M162 342q9 83 20 108t39 25h168q50 0 41 -51l-6 -35q-21 -129 21 -182t159 -53t172 54t74 187l39 275q-132 -84 -291 -84q-225 0 -311.5 116t-46.5 373l6 39q22 146 67 246t117 158.5t161.5 84t211.5 25.5q138 0 229.5 -33t136.5 -95.5t58.5 -153t-4.5 -205.5l-99 -692 q-11 -80 -32.5 -145t-62 -125t-98.5 -100.5t-145.5 -64.5t-199.5 -24q-232 0 -336 96.5t-88 255.5zM500 1022q-21 -152 20 -212t160 -60q108 0 172.5 59.5t79.5 173.5l29 209q21 150 -22 211t-159 61q-119 0 -178.5 -60.5t-79.5 -211.5z" />
<glyph unicode=":" horiz-adv-x="456" d="M123 49l18 125q6 49 52 49h131q47 0 41 -49l-19 -125q-6 -49 -53 -49h-131q-45 0 -39 49zM236 850l18 125q6 49 51 49h131q47 0 41 -49l-18 -125q-6 -49 -53 -49h-132q-44 0 -38 49z" />
<glyph unicode=";" horiz-adv-x="456" d="M96 -209q0 7 8 27l80 182h-22q-43 0 -37 49l16 125q6 49 54 49h131q45 0 39 -49l-21 -143q-4 -23 -8 -31l-117 -182q-20 -32 -31.5 -38.5t-33.5 -6.5h-31q-27 0 -27 18zM238 850l16 125q6 49 53 49h131q45 0 39 -49l-16 -125q-6 -49 -55 -49h-132q-42 0 -36 49z" />
<glyph unicode="&#x3c;" horiz-adv-x="1019" d="M152 641l14 98q6 50 57 70l801 330q15 6 25 6q24 0 18 -35l-14 -98q-6 -51 -58 -70l-612 -252l543 -252q43 -18 37 -69l-15 -99q-5 -34 -26 -34q-10 0 -25 6l-707 329q-44 19 -38 70z" />
<glyph unicode="=" horiz-adv-x="1175" d="M164 336l12 76q6 49 51 49h850q45 0 39 -49l-10 -76q-6 -51 -53 -51h-850q-45 0 -39 51zM246 911l10 76q6 49 51 49h850q47 0 41 -49l-10 -76q-6 -51 -55 -51h-850q-43 0 -37 51z" />
<glyph unicode="&#x3e;" horiz-adv-x="1019" d="M150 270l12 99q6 50 57 69l612 252l-540 252q-43 18 -37 70l12 98q6 35 29 35q9 0 24 -6l707 -330q43 -19 37 -70l-14 -98q-6 -49 -56 -70l-800 -329q-15 -6 -27 -6q-21 0 -16 34z" />
<glyph unicode="?" horiz-adv-x="1120" d="M219 1180q10 89 31 155.5t63 124t105.5 93t158.5 55.5t222 20q103 0 182.5 -19.5t129 -51t81.5 -75.5t44.5 -90t12.5 -98q0 -70 -29.5 -130t-77 -105t-106 -86t-118 -82.5t-110.5 -85.5t-87.5 -103t-44.5 -127l-6 -53q-6 -49 -56 -49h-161q-43 0 -37 49l6 53 q12 83 49 154.5t87 123.5t108.5 98t114 86.5t101 80.5t73.5 88.5t28 102.5q0 79 -50.5 117t-164.5 38q-133 0 -195 -52.5t-79 -186.5l-5 -33q-6 -49 -53 -49h-180q-40 0 -37 37zM348 49l19 125q6 49 51 49h162q47 0 41 -49l-19 -125q-6 -49 -53 -49h-162q-45 0 -39 49z" />
<glyph unicode="@" horiz-adv-x="1783" d="M180 686q0 178 50.5 331t139 264t207.5 190t258.5 118t290.5 39q136 0 253.5 -36.5t210 -108t153.5 -177t82.5 -244t-2.5 -308.5l-25 -166q-6 -41 -16 -69.5t-30 -49t-43.5 -32t-65.5 -18.5t-87 -9t-116 -2h-264q-31 0 -53 15t-15 54l-6 4q-77 -80 -201 -80 q-133 0 -187 73.5t-30 252.5l23 170q24 177 100.5 251.5t210.5 74.5q126 0 176 -82l6 6l6 39q3 31 33 31h88q30 0 27 -31l-86 -613q-6 -49 35 -49h296q44 0 50 49l26 181q21 145 3.5 261.5t-66 204t-124.5 146t-172 88t-208 29.5q-125 0 -239.5 -31t-212.5 -95t-170 -155 t-113 -218t-41 -277q0 -269 158.5 -419.5t410.5 -150.5h27q50 0 41 -49l-8 -49q-6 -49 -54 -49h-41q-148 0 -273.5 47t-217.5 134t-143.5 219.5t-51.5 295.5zM840 657q-10 -74 16.5 -113.5t85.5 -39.5q78 0 119 38.5t49 102.5l47 334q17 139 -127 139q-60 0 -98.5 -38.5 t-48.5 -112.5z" />
<glyph unicode="A" horiz-adv-x="1249" d="M33 49l606 1393h-61q-40 0 -40 40q0 5 1 11l12 76q6 49 51 49h348q45 0 54 -49l235 -1520q1 -8 1 -14q0 -35 -36 -35h-176q-14 0 -20 1t-14 5t-12 14.5t-7 28.5l-43 291h-537l-123 -291q-14 -34 -26.5 -41.5t-40.5 -7.5h-148q-31 0 -31 22q0 11 7 27zM469 516h436 l-110 766z" />
<glyph unicode="B" horiz-adv-x="1288" d="M76 49l12 76q6 51 53 51h56l178 1266h-56q-39 0 -39 39q0 5 1 12l10 76q6 49 53 49h543q194 0 302 -40q109 -40 147 -124q24 -54 24 -132q0 -44 -8 -97l-6 -39q-19 -123 -65 -202t-130 -124q81 -48 109 -134q17 -53 17 -126q0 -45 -7 -98l-10 -82q-29 -231 -159.5 -325.5 t-420.5 -94.5h-563q-42 0 -42 39q0 4 1 10zM471 176h227q145 0 204.5 47.5t78.5 175.5l23 148q5 33 5 60q1 77 -37 113q-50 48 -190 48h-227zM578 930h206q140 0 202 43t79 162l14 104q6 35 6 62q-1 11 -1 21q-4 35 -14.5 58.5t-39 37t-69.5 19t-105 5.5h-207z" />
<glyph unicode="C" horiz-adv-x="1210" d="M176 539l78 540q22 156 66 261t117 169t170 91.5t233 27.5q108 0 187.5 -17t139.5 -56t90.5 -101t39.5 -152q3 -26 2 -54q0 -70 -15 -154l-6 -35q-5 -25 -17 -37t-36 -12h-176q-42 0 -42 39q0 5 1 10l10 67q10 67 10 119q0 85 -28 128q-44 69 -179 69t-197.5 -69.5 t-88.5 -252.5l-89 -622q-10 -68 -10 -120q0 -88 28 -132q44 -70 179 -70t198.5 67.5t86.5 239.5l10 76q6 49 53 49h176q42 0 42 -39q0 -5 -1 -10l-6 -41q-22 -150 -66.5 -251t-118 -162.5t-171.5 -88t-236 -26.5q-91 0 -160.5 12t-124.5 38t-89 68q-34 43 -54 104 q-20 60 -20 138q0 81 14 189z" />
<glyph unicode="D" horiz-adv-x="1304" d="M76 49l10 76q6 51 55 51h56l178 1266h-56q-41 0 -41 40q0 5 1 11l12 76q6 49 53 49h555q194 0 301 -46q108 -46 146 -152q23 -63 22 -153q0 -61 -10 -134l-92 -648q-38 -269 -172 -377t-422 -108h-555q-42 0 -42 39q0 4 1 10zM471 176h225q139 0 203.5 53t83.5 183 l113 796q5 35 5 64q0 78 -37 117q-51 53 -190 53h-225z" />
<glyph unicode="E" horiz-adv-x="995" d="M156 696l12 76q6 51 53 51h55l105 746q6 49 53 49h690q42 0 42 -39q0 -5 -1 -10l-10 -76q-6 -51 -55 -51h-463l-86 -619h272q40 0 40 -40q0 -5 -1 -11l-10 -76q-6 -49 -53 -49h-273l-65 -471h463q40 0 40 -40q0 -5 -1 -11l-11 -76q-6 -49 -55 -49h-690q-40 0 -40 38 q0 5 1 11l84 598h-55q-42 0 -42 39q0 4 1 10z" />
<glyph unicode="F" horiz-adv-x="968" d="M156 696l12 76q6 51 53 51h55l105 746q6 49 53 49h690q42 0 42 -39q0 -5 -1 -10l-10 -76q-6 -51 -55 -51h-463l-86 -619h272q40 0 40 -40q0 -5 -1 -11l-10 -76q-6 -49 -53 -49h-273l-84 -598q-6 -49 -55 -49h-180q-40 0 -40 38q0 5 1 11l84 598h-55q-42 0 -42 39 q0 4 1 10z" />
<glyph unicode="G" horiz-adv-x="1218" d="M166 354q0 81 12 185l76 540q21 156 65.5 261.5t118 169t170.5 91t232 27.5q88 0 156 -11.5t123.5 -37t90 -66t56 -99.5t22.5 -138v-6q0 -76 -12 -172l-2 -15q-6 -49 -51 -49h-176q-44 0 -44 39q0 5 1 10l6 43q10 67 10 119q0 85 -27 128q-43 69 -172 69 q-131 0 -195.5 -71t-90.5 -251l-89 -622q-10 -68 -10 -120q0 -88 28 -132q43 -70 179 -70q135 0 198.5 70.5t88.5 251.5l20 149h-211q-42 0 -42 39q0 4 1 10l13 76q6 51 53 51h434q42 0 42 -37q0 -5 -1 -10l-35 -246q-21 -152 -66.5 -256t-120.5 -167t-173 -90t-234 -27 q-90 0 -158 12t-123 38t-88.5 68.5t-54 103.5t-20.5 142z" />
<glyph unicode="H" horiz-adv-x="1349" d="M156 696l10 76q6 51 55 51h55l105 746q6 49 53 49h180q42 0 42 -39q0 -5 -1 -10l-104 -746h481l105 746q6 49 51 49h180q42 0 42 -39q0 -5 -1 -10l-104 -746h55q40 0 40 -40q0 -5 -1 -11l-10 -76q-6 -49 -54 -49h-55l-84 -598q-6 -49 -55 -49h-180q-38 0 -38 38q0 5 1 11 l84 598h-482l-84 -598q-6 -49 -55 -49h-180q-40 0 -40 38q0 5 1 11l84 598h-55q-42 0 -42 39q0 4 1 10z" />
<glyph unicode="I" horiz-adv-x="550" d="M145 49l215 1520q6 49 52 49h182q40 0 39 -38v-11l-215 -1520q-6 -49 -51 -49h-183q-40 0 -40 38q0 5 1 11z" />
<glyph unicode="J" horiz-adv-x="745" d="M31 49l10 76q6 51 55 51h123q85 0 122 49.5t56 184.5l146 1032h-64q-40 0 -40 40q0 5 1 11l13 76q6 49 51 49h291q42 0 42 -39q0 -4 -1 -10l-162 -1141q-33 -234 -138.5 -331t-308.5 -97h-155q-42 0 -42 39q0 4 1 10z" />
<glyph unicode="K" horiz-adv-x="1257" d="M156 696l10 76q6 51 55 51h55l105 746q6 49 53 49h182q40 0 40 -38q0 -5 -1 -11l-104 -746h72l559 746q25 34 41 41.5t45 7.5h174q24 0 24 -16q0 -13 -16 -33l-627 -834l420 -686q12 -15 7.5 -32t-31.5 -17h-181q-25 0 -36 7t-33 42l-361 598h-82l-84 -598 q-6 -49 -53 -49h-182q-40 0 -40 38q0 5 1 11l84 598h-55q-42 0 -42 39q0 4 1 10z" />
<glyph unicode="L" horiz-adv-x="825" d="M145 49l215 1520q6 49 52 49h182q40 0 40 -38q0 -5 -1 -11l-197 -1393h350q40 0 39 -40v-11l-10 -76q-6 -49 -53 -49h-578q-40 0 -40 38q0 5 1 11z" />
<glyph unicode="M" horiz-adv-x="1601" d="M109 49l294 1520q9 49 54 49h176q20 0 27.5 -1.5t14.5 -11t11 -30.5l195 -1000l479 1000q13 28 23.5 35.5t33.5 7.5h182q41 0 41 -43v-6l-135 -1520q-3 -49 -49 -49h-174q-43 0 -43 43v6l86 991l-397 -858q-13 -29 -26 -37t-42 -8h-82q-27 0 -36 7.5t-15 37.5l-160 865 l-192 -998q-9 -49 -53 -49h-177q-37 0 -37 34q0 7 1 15z" />
<glyph unicode="N" horiz-adv-x="1308" d="M145 49l215 1520q6 49 52 49h180q16 0 23 -0.5t15 -5t12.5 -13.5t8.5 -26l314 -1088l153 1084q6 49 51 49h183q40 0 40 -38q0 -5 -1 -11l-213 -1520q-6 -49 -54 -49h-180q-29 0 -39 6.5t-18 38.5l-318 1085l-151 -1081q-6 -49 -51 -49h-183q-40 0 -40 38q0 5 1 11z" />
<glyph unicode="O" horiz-adv-x="1273" d="M168 322q-3 31 -3 66q0 69 13 151l76 540q21 156 66.5 261.5t122 169t177.5 91t242 27.5q94 0 165.5 -12t129.5 -38t94.5 -68.5t59 -103.5t23.5 -142q0 -6 1 -13q0 -76 -12 -172l-76 -540q-21 -155 -67.5 -261t-124 -169.5t-179 -91t-243.5 -27.5q-113 0 -194 17 t-141.5 56.5t-90 103t-39.5 155.5zM453 498q-10 -68 -9 -120q0 -88 27 -132q44 -70 188 -70q145 0 210.5 69.5t91.5 252.5l86 622q10 67 10 119q0 89 -29 133q-45 70 -190 70q-144 0 -208.5 -69.5t-90.5 -252.5z" />
<glyph unicode="P" horiz-adv-x="1243" d="M164 49l196 1393h-55q-42 0 -42 40q0 5 1 11l12 76q6 49 54 49h563q281 0 384 -104q79 -79 78 -244q0 -51 -7 -111l-15 -112q-32 -248 -167 -352.5t-418 -104.5h-234l-76 -541q-6 -49 -51 -49h-182q-42 0 -42 39q0 4 1 10zM539 754h225q140 0 203.5 51.5t83.5 187.5 l30 215q5 35 5 64q0 78 -36 117q-50 53 -190 53h-225z" />
<glyph unicode="Q" horiz-adv-x="1273" d="M178 539l78 540q22 156 67.5 261.5t121.5 169t177 91t242 27.5q94 0 165.5 -12t129.5 -38t94 -68.5t58.5 -103.5t23.5 -142v-12q0 -76 -12 -173l-76 -540q-25 -184 -87.5 -300t-162 -172.5t-249.5 -70.5l-31 -221q-6 -49 -51 -58l-144 -26q-23 -4 -31.5 5.5t-5.5 33.5 l37 266q-146 14 -228.5 71t-111.5 172q-16 61 -16 142q0 71 12 158zM455 498q-10 -68 -10 -120q0 -89 28 -132q44 -70 189 -70t210 69.5t91 252.5l86 622q9 66 9 117q0 91 -29 135q-46 70 -191 70q-144 0 -207.5 -69t-89.5 -253z" />
<glyph unicode="R" horiz-adv-x="1286" d="M164 49l196 1393h-55q-42 0 -42 40q0 5 1 11l12 76q6 49 54 49h563q281 0 385 -104q78 -78 78 -240q0 -53 -8 -115l-7 -45q-22 -154 -78.5 -249t-158.5 -146q61 -59 76 -191l55 -479v-8q0 -41 -41 -41h-174q-15 0 -21.5 1t-14.5 5.5t-11.5 14.5t-5.5 28l-64 504 q-7 57 -34 80.5t-76 23.5h-269l-86 -608q-6 -49 -51 -49h-182q-42 0 -42 39q0 4 1 10zM547 823h225q140 0 204.5 52t84.5 188l20 145q5 35 5 64q0 78 -36 117q-50 53 -190 53h-225z" />
<glyph unicode="S" horiz-adv-x="1216" d="M134 246q-6 37 -5 81q0 58 10 126l8 55q6 49 52 49h188q42 0 42 -39q0 -5 -1 -10l-8 -59q-6 -46 -6 -84q0 -87 34 -129q48 -60 183 -60q131 0 196 49.5t84 157.5l7 35q4 26 4 49q0 34 -9 64q-16 50 -51 83.5t-84 61.5t-105.5 52.5t-114 49.5t-110.5 59.5t-94 76.5 t-65.5 106t-24.5 143q0 87 15.5 154.5t54.5 127.5t103 99t164.5 61.5t234.5 22.5q274 0 379 -103q79 -78 79 -226q0 -48 -8 -103l-6 -39q-6 -49 -51 -49h-182q-42 0 -42 39q0 5 1 10l6 39q6 41 6 74q0 77 -33 116q-48 56 -176 56q-143 0 -204.5 -59t-61.5 -173 q0 -61 36.5 -107.5t94.5 -78.5t129 -62.5t141.5 -69t128.5 -87t94.5 -127t36.5 -180.5q0 -63 -4.5 -111t-19 -103.5t-40 -96t-70.5 -79.5t-107.5 -63.5t-153.5 -39.5t-205 -15q-153 0 -251.5 27.5t-151.5 84.5t-67 144z" />
<glyph unicode="T" horiz-adv-x="1062" d="M227 1493l11 76q6 49 53 49h934q40 0 40 -38q0 -5 -1 -11l-11 -76q-6 -51 -53 -51h-330l-196 -1393q-6 -49 -51 -49h-183q-42 0 -42 39q0 5 1 10l197 1393h-330q-40 0 -40 40q0 5 1 11z" />
<glyph unicode="U" horiz-adv-x="1284" d="M193 354q0 81 12 185l145 1030q6 49 53 49h183q40 0 40 -38q0 -5 -1 -11l-150 -1071q-10 -71 -10 -125q0 -85 25 -127q41 -70 176 -70q139 0 200.5 69t87.5 253l150 1071q6 49 53 49h178q38 0 38 -38q0 -5 -1 -11l-143 -1030q-21 -155 -66 -261t-119.5 -169.5t-172 -91 t-232.5 -27.5q-90 0 -158.5 12t-123.5 38t-88.5 68.5t-54.5 103.5t-21 142z" />
<glyph unicode="V" horiz-adv-x="1243" d="M240 1569q-1 8 -1 14q0 35 35 35h175q15 0 21 -1t14 -5t12 -14.5t6 -28.5l178 -1235l524 1235q14 34 27.5 41.5t42.5 7.5h147q30 0 30 -22q0 -11 -7 -27l-662 -1520q-16 -34 -27.5 -41.5t-37.5 -7.5h-191q-14 0 -20.5 1t-14 5.5t-11.5 14.5t-7 28z" />
<glyph unicode="W" horiz-adv-x="1769" d="M256 1569v6q0 43 43 43h166q20 0 28 -2t14.5 -12.5t8.5 -34.5l78 -1110l412 1110q12 34 25 41.5t40 7.5h86q19 0 27 -2t15 -12.5t9 -34.5l97 -1100l391 1100q11 34 23 41.5t40 7.5h166q35 0 35 -28q0 -9 -4 -21l-547 -1520q-11 -34 -22.5 -41.5t-38.5 -7.5h-162 q-14 0 -20.5 1t-14 5.5t-11 14.5t-5.5 28l-99 1022l-385 -1022q-12 -34 -24 -41.5t-39 -7.5h-166q-14 0 -20.5 1t-13.5 5.5t-10.5 14.5t-4.5 28z" />
<glyph unicode="X" horiz-adv-x="1220" d="M26 15q-4 15 11 34l506 727l-293 793q-7 21 0.5 35t32.5 14h184q23 0 33.5 -9.5t21.5 -39.5l223 -635l410 635q19 29 33 39t37 10h166q32 0 32 -19q0 -12 -12 -30l-508 -787l301 -733q8 -20 -1 -34.5t-34 -14.5h-186q-22 0 -32 10t-21 39l-238 584l-399 -584 q-20 -29 -34.5 -39t-37.5 -10h-166q-25 0 -29 15z" />
<glyph unicode="Y" horiz-adv-x="1187" d="M238 1569q-4 11 -4 20q0 29 38 29h181q25 0 34 -7t19 -42l211 -725l418 725q20 34 32.5 41.5t38.5 7.5h166q30 0 30 -19q0 -12 -11 -30l-580 -991l-74 -529q-6 -49 -53 -49h-180q-42 0 -42 39q0 4 1 10l76 533z" />
<glyph unicode="Z" horiz-adv-x="1120" d="M70 49l14 94q3 21 10 33l871 1266h-504l-8 -60q-6 -47 -56 -47h-96q-44 0 -44 37q0 5 1 10l27 187q6 49 51 49h899q44 0 44 -39q0 -5 -1 -10l-14 -101q-3 -15 -11 -26l-874 -1266h506l8 60q6 47 55 47h96q47 0 47 -38q0 -4 -1 -9l-27 -187q-6 -49 -55 -49h-899 q-40 0 -40 38q0 5 1 11z" />
<glyph unicode="[" horiz-adv-x="794" d="M76 -340l323 2296q6 49 56 49h557q45 0 39 -49l-9 -60q-6 -51 -53 -51h-411l-291 -2074h411q43 0 37 -52l-8 -59q-6 -49 -51 -49h-557q-49 0 -43 49z" />
<glyph unicode="\" horiz-adv-x="1077" d="M268 1581q-19 47 31 47h66q20 0 29.5 -1.5t20 -12t19.5 -33.5l604 -1544q9 -25 2 -36t-32 -11h-66q-20 0 -29 1.5t-19.5 12t-19.5 33.5z" />
<glyph unicode="]" horiz-adv-x="794" d="M-33 -340l8 59q6 52 56 52h409l291 2074h-409q-45 0 -39 51l8 60q6 49 53 49h557q47 0 41 -49l-324 -2296q-6 -49 -53 -49h-557q-47 0 -41 49z" />
<glyph unicode="^" horiz-adv-x="1028" d="M129 492q0 6 10 26l436 754q18 29 33.5 38t42.5 9h99q28 0 41 -9t22 -38l225 -754q2 -8 2 -20q0 -27 -39 -27h-98q-27 0 -41 9t-22 38l-170 574l-334 -574q-18 -30 -33 -38.5t-43 -8.5h-98q-33 0 -33 21z" />
<glyph unicode="_" horiz-adv-x="1026" d="M-29 -197l11 76q6 49 53 49h934q45 0 39 -49l-11 -76q-6 -51 -53 -51h-934q-45 0 -39 51z" />
<glyph unicode="`" horiz-adv-x="673" d="M309 1610q0 16 15 35l86 104q28 35 49 35q20 0 35 -12l286 -246q21 -18 21 -39q0 -14 -15 -33l-26 -31q-15 -18 -41 -18q-21 0 -41 10q-159 71 -350 166q-19 13 -19 29z" />
<glyph unicode="a" d="M154 307q-2 25 -2 52q0 69 14 155l39 268q21 147 63 249t105.5 162.5t142.5 87t184 26.5q191 0 277 -127l12 8l8 59q6 49 54 49h145q40 0 40 -38q0 -5 -1 -11l-154 -1093h49q40 0 39 -39v-11l-8 -55q-6 -49 -53 -49h-240q-42 0 -42 39q0 5 1 10l9 57l-11 9 q-115 -125 -311 -125q-83 0 -145 16.5t-110.5 53.5t-72.5 98t-32 149zM420 422q-7 -46 -7 -84q1 -78 29 -121q42 -63 156 -63q116 0 175 63t79 205l68 479q6 37 6 68q0 75 -33 116q-46 58 -158 58q-115 0 -173.5 -63.5t-78.5 -205.5z" />
<glyph unicode="b" horiz-adv-x="1191" d="M139 49l219 1559h-49q-40 0 -40 38q0 5 1 11l6 55q6 49 56 49h258q40 0 40 -38q0 -5 -1 -11l-72 -504l8 -8q120 107 295 107q83 0 145 -16.5t109.5 -54t71.5 -98t32 -148.5q2 -25 2 -53q0 -70 -14 -155l-37 -268q-20 -147 -62 -249t-105.5 -162t-143 -86.5t-184.5 -26.5 q-194 0 -279 129l-10 -6l-8 -64q-6 -49 -53 -49h-146q-40 0 -40 38q0 5 1 11zM455 393q-6 -37 -6 -68q0 -74 32 -114q45 -57 156 -57q115 0 174.5 63t79.5 205l63 452q7 46 7 84q-1 80 -29 122q-42 64 -156.5 63.5t-174 -64t-79.5 -205.5z" />
<glyph unicode="c" horiz-adv-x="1130" d="M166 535l31 227q21 156 65.5 262t116 168t162.5 88.5t217 26.5q223 0 338 -95q92 -76 92 -223q0 -37 -6 -78l-6 -43q-9 -53 -54 -53h-159q-24 0 -33 12.5t-6 40.5l6 52q4 32 4 58q0 76 -32 114q-43 50 -165 51q-115 0 -175.5 -64t-80.5 -207l-63 -448q-6 -46 -7 -83 q-1 -79 29 -123q42 -64 158 -64q122 0 179.5 50.5t76.5 172.5l8 51q5 28 17 40.5t36 12.5h160q38 0 38 -41q0 -6 -1 -12l-4 -43q-12 -105 -58 -183t-119 -123.5t-162.5 -67t-197.5 -21.5q-83 0 -146.5 11t-115.5 37t-83.5 67t-51.5 102q-20 60 -21 138q0 81 13 190z" />
<glyph unicode="d" d="M154 307q-2 25 -2 52q0 69 14 155l39 268q21 147 63 249t105.5 162.5t142.5 87t184 26.5q177 0 261 -105l12 8l55 398h-45q-40 0 -40 38q0 5 1 11l6 55q6 49 56 49h256q37 0 37 -38q0 -5 -1 -11l-219 -1558h51q40 0 39 -39v-11l-8 -55q-6 -49 -53 -49h-240q-42 0 -42 39 q0 5 1 10l9 55l-11 9q-120 -123 -311 -123q-83 0 -145 16.5t-110.5 53.5t-72.5 98t-32 149zM420 422q-7 -46 -7 -84q1 -78 29 -121q42 -63 156 -63q116 0 175 63t79 205l63 452q6 46 6 83q0 79 -28 123q-42 64 -158 63q-115 0 -173.5 -63.5t-78.5 -205.5z" />
<glyph unicode="e" horiz-adv-x="1138" d="M166 535l31 227q21 156 65.5 262t116 168t162.5 88.5t217 26.5q93 0 162.5 -15.5t125.5 -50.5t86 -92t42 -141q4 -33 4 -69q0 -58 -11 -126l-14 -100q-7 -54 -55 -60l-660 -88l-20 -141q-6 -46 -7 -83q-1 -79 29 -123q42 -64 158 -64q122 0 179.5 50.5t76.5 172.5l8 51 q5 28 17 40.5t36 12.5h160q38 0 38 -41q0 -6 -1 -12l-4 -43q-12 -105 -58 -183t-119 -123.5t-162.5 -67t-197.5 -21.5q-83 0 -146.5 11t-115.5 37t-83.5 67t-51.5 102q-20 60 -21 138q0 81 13 190zM457 705l450 59l17 110q6 45 6 82q0 80 -29 124q-43 64 -164 63 q-115 0 -175.5 -64t-80.5 -205z" />
<glyph unicode="f" horiz-adv-x="704" d="M180 49l154 1094h-96q-40 0 -40 38q0 5 1 11l6 55q6 49 55 49h94l6 37q38 236 136 332t290 96h127q40 0 40 -38q0 -5 -1 -11l-6 -55q-6 -49 -55 -49h-139q-49 0 -71.5 -25t-31.5 -88l-28 -199h196q40 0 40 -38q0 -5 -1 -11l-6 -55q-6 -49 -55 -49h-195l-154 -1094 q-6 -49 -53 -49h-172q-42 0 -42 39q0 4 1 10z" />
<glyph unicode="g" horiz-adv-x="1191" d="M154 307q-2 25 -2 52q0 70 14 155l39 268q21 147 63 249t105.5 162.5t142.5 87t184 26.5q194 0 279 -129l10 6l8 63q6 49 54 49h145q40 0 40 -38q0 -5 -1 -11l-182 -1284q-33 -234 -137.5 -331t-307.5 -97h-409q-42 0 -42 39q0 4 1 10l6 56q6 49 57 49h371q92 0 130.5 47 t57.5 178l25 180q-113 -104 -291 -104q-83 0 -145 16.5t-110.5 53.5t-72.5 98t-32 149zM420 422q-7 -46 -7 -84q0 -78 29 -121q41 -63 156 -63q116 0 175 63t79 205l63 452q6 46 6 83q0 79 -28 123q-42 63 -158 63q-115 0 -173.5 -63.5t-78.5 -205.5z" />
<glyph unicode="h" horiz-adv-x="1222" d="M139 49l219 1559h-49q-40 0 -40 38q0 5 1 11l6 55q6 49 56 49h258q40 0 40 -38q0 -5 -1 -11l-72 -504l8 -8q120 107 295 107q83 0 145 -16.5t109.5 -54t71.5 -98t32 -148.5q2 -25 2 -53q0 -70 -14 -155l-102 -733q-6 -49 -53 -49h-172q-42 0 -42 39q0 5 1 10l116 825 q7 46 7 84q-1 80 -29 122q-42 64 -156 63q-111 0 -171 -57.5t-79 -184.5l-120 -852q-6 -49 -54 -49h-172q-42 0 -42 39q0 4 1 10z" />
<glyph unicode="i" horiz-adv-x="550" d="M160 49l153 1094h-49q-40 0 -40 38q0 5 1 11l6 55q6 49 56 49h268q40 0 40 -38q0 -5 -1 -11l-168 -1198q-6 -49 -53 -49h-172q-42 0 -42 39q0 4 1 10zM367 1524l22 153q6 49 51 49h176q40 0 39 -38v-11l-22 -153q-6 -49 -51 -49h-176q-40 0 -40 38q0 5 1 11z" />
<glyph unicode="j" horiz-adv-x="552" d="M-193 -416l9 56q6 49 53 49h82q92 0 131.5 47t58.5 178l172 1229h-47q-40 0 -40 38q0 5 1 11l6 55q6 49 56 49h268q40 0 40 -38q0 -5 -1 -11l-180 -1284q-33 -234 -138.5 -331t-308.5 -97h-121q-42 0 -42 39q0 4 1 10zM367 1524l22 153q6 49 53 49h174q42 0 42 -39 q0 -4 -1 -10l-22 -153q-6 -49 -53 -49h-174q-42 0 -42 39q0 4 1 10z" />
<glyph unicode="k" horiz-adv-x="1132" d="M139 49l234 1663q6 49 55 49h172q40 0 40 -38q0 -5 -1 -11l-139 -987h53l436 522q28 34 44.5 41.5t45.5 7.5h187q24 0 24 -14q0 -12 -20 -35l-506 -600l340 -598q10 -20 10 -31q0 -18 -29 -18h-180q-27 0 -41.5 8t-34.5 41l-299 522h-51l-73 -522q-6 -49 -54 -49h-172 q-42 0 -42 39q0 4 1 10z" />
<glyph unicode="l" horiz-adv-x="536" d="M141 49l234 1663q6 49 55 49h170q40 0 39 -38v-11l-233 -1663q-6 -49 -54 -49h-170q-42 0 -42 39q0 4 1 10z" />
<glyph unicode="m" horiz-adv-x="1878" d="M160 49l153 1094h-47q-40 0 -40 38q0 5 1 11l6 55q6 49 56 49h235q40 0 39 -38v-11l-8 -63l10 -8q112 131 297 131q123 0 203 -41t117 -133h10q121 174 338 174q66 0 118 -11t96 -36t72 -65q26 -41 44 -99q17 -55 18 -128q0 -4 -1 -8q-1 -78 -13 -178l-103 -733 q-6 -49 -53 -49h-168q-42 0 -42 39q0 5 1 10l117 825q7 45 7 82q-1 78 -29 122q-42 66 -144 65q-201 0 -240 -269l-116 -825q-6 -49 -54 -49h-168q-42 0 -42 39q0 5 1 10l117 825q6 43 6 80q0 189 -170 189q-203 0 -239 -256l-119 -838q-6 -49 -53 -49h-170q-44 0 -44 39 q0 5 1 10z" />
<glyph unicode="n" horiz-adv-x="1243" d="M160 49l153 1094h-47q-40 0 -40 38q0 5 1 11l6 55q6 49 56 49h235q40 0 39 -38v-11l-8 -63l10 -8q121 131 316 131q82 0 143.5 -16t110 -53t73.5 -98q24 -62 32 -150q2 -26 2 -55q0 -69 -13 -153l-103 -733q-6 -49 -53 -49h-172q-42 0 -42 39q0 5 1 10l117 825q6 45 6 82 q-1 79 -29 123q-42 64 -157 64t-174.5 -63.5t-79.5 -205.5l-117 -825q-6 -49 -53 -49h-170q-44 0 -44 39q0 5 1 10z" />
<glyph unicode="o" horiz-adv-x="1146" d="M166 535l31 227q21 156 65.5 262t116 168t162.5 88.5t217 26.5q84 0 147.5 -11t115.5 -37t83.5 -67t51.5 -102q20 -60 20 -138v-4q0 -81 -13 -186l-30 -227q-21 -156 -65 -262t-115.5 -168t-163 -88.5t-218.5 -26.5q-83 0 -146.5 11t-115.5 37t-83.5 67t-51.5 102 q-20 60 -21 138q0 81 13 190zM418 422q-7 -46 -7 -84q1 -78 29 -121q42 -63 156.5 -63t174 63t79.5 205l63 452q7 46 7 84q0 80 -28 122q-42 64 -157 63.5t-174.5 -64t-79.5 -205.5z" />
<glyph unicode="p" d="M96 -416l219 1559h-49q-40 0 -40 38q0 5 1 11l6 55q6 49 56 49h239q40 0 40 -38q0 -5 -1 -11l-8 -55l12 -8q117 123 310 123q83 0 145 -16.5t110 -54t72 -98t32 -148.5q2 -27 2 -56q0 -68 -13 -152l-37 -268q-20 -147 -62 -249t-106 -162t-143.5 -86.5t-184.5 -26.5 q-178 0 -262 104l-12 -8l-70 -502q-6 -49 -53 -49h-164q-40 0 -40 38q0 5 1 11zM477 393q-6 -37 -6 -68q0 -74 32 -114q45 -57 156 -57q115 0 174.5 63t79.5 205l64 452q7 46 7 84q0 79 -28 122q-42 63 -157 63q-111 0 -171 -57.5t-79 -184.5z" />
<glyph unicode="q" horiz-adv-x="1191" d="M154 307q-2 25 -2 52q0 70 14 155l39 268q21 147 63 249t105.5 162.5t142.5 87t184 26.5q189 0 275 -123l14 8l8 55q6 49 54 49h145q40 0 40 -38q0 -5 -1 -11l-236 -1663q-6 -49 -51 -49h-164q-42 0 -42 39q0 4 1 10l72 502l-10 8q-113 -104 -291 -104q-83 0 -145 16.5 t-110.5 53.5t-72.5 98t-32 149zM420 422q-7 -46 -7 -84q0 -78 29 -121q41 -63 156 -63q111 0 171 57t79 182l67 481q6 46 6 83q0 79 -28 123q-42 63 -158 63q-115 0 -173.5 -63.5t-78.5 -205.5z" />
<glyph unicode="r" horiz-adv-x="774" d="M160 49l153 1094h-47q-40 0 -40 38q0 5 1 11l6 55q6 49 56 49h235q23 0 32.5 -11t6.5 -38l-4 -35l10 -8q103 103 265 103h59q40 0 40 -39q0 -5 -1 -11l-19 -135q-6 -49 -53 -49h-184q-60 0 -86 -24.5t-35 -87.5l-129 -912q-6 -49 -53 -49h-170q-44 0 -44 39q0 5 1 10z " />
<glyph unicode="s" horiz-adv-x="1073" d="M117 330l6 39q9 53 55 53h172q40 0 41 -36q0 -7 -2 -15l-6 -41q-3 -24 -3 -44q0 -61 31 -91q42 -39 144 -39q104 0 157.5 36t63.5 115l4 29q2 17 2 33q0 31 -9 57q-14 40 -44.5 66.5t-72 48.5t-89 40.5t-95.5 38.5t-92 47t-78 61t-54.5 85t-20.5 115q0 72 13.5 127.5 t47 104t88.5 80t140.5 49.5t200.5 18q231 -1 325 -79q76 -64 77 -183q0 -28 -5 -60l-6 -49q-6 -53 -53 -53h-160q-40 0 -40 38q0 7 1 15l6 37q4 23 4 43q0 59 -31 88q-41 39 -137 39q-115 0 -162 -42t-47 -128q0 -49 31 -87t81 -64t110 -51t120 -56t110 -70.5t81 -103 t31 -144.5q0 -74 -11 -130t-44 -110.5t-89.5 -89t-151.5 -56t-225 -21.5q-256 0 -350 79q-72 61 -71 183q0 36 6 78z" />
<glyph unicode="t" horiz-adv-x="700" d="M193 1192l8 55q6 49 55 49h94l37 258q6 50 57 50h172q40 0 40 -39q0 -5 -1 -11l-37 -258h199q42 0 42 -39q0 -5 -1 -10l-8 -55q-6 -49 -53 -49h-199l-123 -877q-3 -24 -4 -42q0 -30 10 -46q15 -24 64 -24h112q42 0 42 -39q0 -5 -1 -11l-8 -55q-6 -49 -53 -49h-90 q-206 0 -280 86q-53 61 -53 188q0 52 9 115l107 754h-94q-44 0 -44 39q0 5 1 10z" />
<glyph unicode="u" horiz-adv-x="1263" d="M206 306q-2 26 -2 55q0 69 13 153l88 629h-49q-42 0 -42 39q0 5 1 10l8 55q6 49 53 49h269q42 0 42 -39q0 -5 -1 -10l-117 -825q-7 -46 -6 -84q-1 -78 27 -121q42 -63 157 -63q111 0 172 57t78 182l121 854q6 49 53 49h172q42 0 42 -39q0 -5 -1 -10l-154 -1093h50 q40 0 40 -39q0 -5 -1 -11l-7 -55q-6 -49 -55 -49h-239q-40 0 -40 38q0 5 1 11l8 60l-10 6q-119 -125 -312 -125q-82 0 -143 16t-110 53t-73.5 98t-32.5 149z" />
<glyph unicode="v" horiz-adv-x="1089" d="M205 1247q-1 6 -1 12q0 37 40 37h162q14 0 20 -1t13.5 -5t11.5 -14.5t6 -28.5l135 -950l407 950q14 34 27.5 41.5t40.5 7.5h143q30 0 30 -22q0 -11 -7 -27l-528 -1198q-16 -34 -29.5 -41.5t-42.5 -7.5h-184q-19 0 -26.5 2t-14.5 12.5t-11 34.5z" />
<glyph unicode="w" horiz-adv-x="1564" d="M221 1247v6q0 43 41 43h162q14 0 20 -1t13.5 -5t11 -14.5t4.5 -28.5l51 -870l346 870q12 28 26 38.5t38 10.5h59q26 0 38.5 -9.5t15.5 -39.5l94 -887l301 887q6 18 12 28.5t15 14.5t15.5 5t20.5 1h162q33 0 33 -27q0 -9 -4 -22l-428 -1198q-12 -34 -24.5 -41.5 t-39.5 -7.5h-157q-15 0 -22 1t-15.5 5t-12.5 14.5t-6 28.5l-90 785l-311 -785q-9 -23 -20.5 -34.5t-21 -13t-30.5 -1.5h-158q-14 0 -20 1t-13 5.5t-10 14.5t-4 28z" />
<glyph unicode="x" horiz-adv-x="1126" d="M47 49l408 600l-240 598q-8 20 0.5 34.5t32.5 14.5h174q22 0 34.5 -10t22.5 -39l193 -504l338 504q19 28 33.5 38.5t37.5 10.5h160q27 0 32 -16t-9 -33l-410 -600l240 -598q8 -20 -1 -34.5t-34 -14.5h-174q-21 0 -33 11.5t-21 37.5l-196 504l-338 -504 q-19 -28 -33.5 -38.5t-36.5 -10.5h-161q-31 0 -31 19q0 11 12 30z" />
<glyph unicode="y" horiz-adv-x="1116" d="M115 -416l22 56q18 49 64 49h59q25 0 44 3.5t34 8t28 18t22 24t21.5 36t20 43.5t23.5 57l49 121h-53q-24 0 -35 10t-15 39l-192 1198q-1 7 -1 13q0 36 38 36h162q23 0 36 -10.5t17 -38.5l143 -1014l430 1014q12 30 25 39.5t37 9.5h139q33 0 33 -25q0 -10 -6 -24 l-568 -1290q-33 -74 -54.5 -120.5t-49 -94.5t-48.5 -74.5t-51.5 -53.5t-60 -39.5t-72 -23t-89.5 -13.5t-111 -3h-9q-36 0 -36 27q0 9 4 22z" />
<glyph unicode="z" horiz-adv-x="1036" d="M74 49l10 70q5 27 18 47l750 977h-453l-8 -58q-6 -49 -53 -49h-78q-42 0 -42 39q0 5 1 10l23 162q6 49 53 49h807q40 0 40 -38q0 -5 -1 -11l-8 -69q-2 -19 -19 -45l-747 -979h448l8 57q6 49 56 49h77q40 0 40 -38q0 -5 -1 -11l-22 -162q-6 -49 -53 -49h-807q-40 0 -40 38 q0 5 1 11z" />
<glyph unicode="{" horiz-adv-x="618" d="M166 774l10 82q6 37 39 37q23 0 40.5 10t28 24.5t19 41t12.5 47.5t9 57l73 514q14 96 41.5 158t76 97.5t110.5 49t155 13.5h29q49 0 43 -47l-4 -29q-6 -47 -55 -47h-72q-58 0 -85.5 -36t-39.5 -122l-74 -532q-19 -137 -49 -205t-88 -68l-2 -10q57 0 68.5 -73.5 t-9.5 -198.5l-71 -521q-14 -99 1 -138.5t74 -39.5h72q49 0 43 -47l-4 -31q-6 -45 -55 -45h-29q-62 0 -106.5 5.5t-83 19t-60.5 36.5t-37.5 58.5t-15 84t7.5 112.5l74 526q5 35 7 57t1 48t-7.5 40.5t-21.5 24.5t-38 10q-33 0 -27 37z" />
<glyph unicode="|" horiz-adv-x="442" d="M113 -74l247 1766q6 49 58 49h100q43 0 37 -49l-248 -1766q-6 -49 -51 -49h-100q-49 0 -43 49z" />
<glyph unicode="}" horiz-adv-x="618" d="M-8 -240l4 31q6 47 55 47h72q60 0 87.5 40t41.5 138l72 521q19 137 49 204.5t88 67.5l2 10q-58 0 -70.5 74.5t8.5 198.5l76 532q12 86 -4 122t-76 36h-71q-49 0 -43 47l4 29q6 47 55 47h29q62 0 107 -5.5t84 -19.5t61 -37.5t37.5 -58.5t15 -83.5t-7.5 -113.5l-74 -514 q-5 -35 -7 -57t-1 -48t7.5 -40.5t21.5 -24.5t38 -10q33 0 27 -37l-10 -82q-6 -37 -39 -37q-23 0 -40.5 -10t-28 -24.5t-19 -41t-12.5 -47.5t-9 -57l-73 -526q-14 -96 -41.5 -158t-76.5 -97t-111.5 -48t-156.5 -13h-28q-49 0 -43 45z" />
<glyph unicode="~" horiz-adv-x="1204" d="M203 659q-13 13 4 31q81 89 161 126.5t177 37.5q71 0 210.5 -46t217.5 -46q96 0 174 65q18 13 33 4q9 -5 30 -26q9 -11 -4 -29q-76 -90 -156.5 -127t-179.5 -37q-70 0 -137 14.5t-110 32t-92.5 32t-88.5 14.5q-79 0 -174 -66q-18 -13 -35 -2q-19 11 -30 22z" />
<glyph unicode="&#xa1;" horiz-adv-x="479" d="M117 39q0 10 51.5 302t103.5 579l52 286q9 47 55 47h72q46 0 43 -47q-113 -1122 -119 -1159q-6 -47 -58 -47h-159q-41 0 -41 39zM346 1552l16 125q6 49 56 49h131q45 0 39 -49l-17 -125q-6 -49 -55 -49h-131q-45 0 -39 49z" />
<glyph unicode="&#xa2;" horiz-adv-x="1136" d="M190 694l33 228q37 266 141 389t295 147l17 113q6 47 55 47h125q49 0 43 -47l-16 -111q85 -10 149 -36.5t109 -72.5t62 -117t3 -163l-6 -43q-9 -53 -53 -53h-160q-24 0 -33 12.5t-6 40.5l6 51q15 123 -27.5 173.5t-164.5 50.5q-115 0 -175.5 -64t-80.5 -207l-64 -448 q-20 -143 23 -207t158 -64q122 0 179.5 51t76.5 173l8 51q5 28 17 40.5t36 12.5h160q45 0 39 -53l-6 -43q-27 -181 -140 -276t-293 -115l-14 -107q-6 -47 -57 -47h-125q-47 0 -41 47l14 109q-185 25 -255.5 148t-31.5 390z" />
<glyph unicode="&#xa3;" horiz-adv-x="1341" d="M158 760l10 76q6 53 63 53h119q-26 110 -26 235q0 57 6.5 107t24 102t45.5 94.5t72.5 80.5t102.5 64t139 41t179 15q222 0 347.5 -97t125.5 -278q0 -62 -14.5 -86t-42.5 -24h-181q-24 0 -32.5 11.5t-5.5 37.5l4 33q17 131 -36.5 185t-183.5 54q-147 0 -209.5 -60.5 t-62.5 -195.5q0 -53 11 -112.5t23 -100t34 -106.5h391q53 0 47 -53l-10 -76q-6 -51 -62 -51h-315q6 -44 6 -103q0 -127 -49.5 -221t-147.5 -174q6 -2 40 -15t47.5 -16.5t44 -11.5t59.5 -11t63 -3q130 0 196.5 40.5t84.5 159.5l10 72q6 49 53 49h181q39 0 39 -39 q0 -132 -72 -234.5t-194.5 -157t-272.5 -54.5q-118 0 -211 21.5t-143 21.5q-72 0 -164 -29q-10 -4 -21 -4q-23 0 -32 20l-52 142q-12 30 39 47q93 31 144.5 97.5t70.5 180.5l4 25q12 79 -32 197h-205q-55 0 -49 51z" />
<glyph unicode="&#xa4;" horiz-adv-x="1261" d="M144.5 364.5q1.5 14.5 21.5 34.5l106 95q-28 64 -28 180q0 97 28 192t76 162l-80 94q-27 30 8 68l80 70q49 34 70 2l96 -117q107 41 264 41q158 0 273 -41l131 117q17 15 37.5 14t32.5 -16l57 -70q29 -36 -8 -68l-111 -96q29 -57 29 -174q0 -98 -28.5 -194.5 t-76.5 -161.5l84 -97q30 -27 -10 -67l-78 -70q-37 -32 -71 -2l-99 115q-95 -35 -272 -35t-262 35l-129 -113q-23 -16 -36.5 -16.5t-31.5 16.5l-61 70q-13 18 -11.5 32.5zM496 688q-17 -122 27.5 -168.5t172.5 -46.5q127 0 186 46.5t76 166.5l21 152q17 120 -29 166.5 t-172 46.5q-128 0 -186.5 -46.5t-75.5 -166.5z" />
<glyph unicode="&#xa5;" horiz-adv-x="1249" d="M266 1569q-15 49 35 49h180q25 0 34.5 -7t19.5 -42l210 -725l418 725q20 34 33 41.5t39 7.5h166q45 0 18 -49l-485 -828h143q53 0 47 -51l-10 -76q-6 -49 -61 -49h-215l-27 -190h215q53 0 47 -51l-10 -76q-6 -49 -62 -49h-215l-20 -150q-6 -49 -53 -49h-181q-46 0 -40 49 l20 150h-197q-49 0 -43 49l11 76q6 51 57 51h197l26 190h-196q-49 0 -43 49l10 76q6 51 57 51h125z" />
<glyph unicode="&#xa6;" horiz-adv-x="399" d="M111 -119l100 719q6 47 59 47h43q49 0 43 -47l-100 -719q-6 -45 -57 -45h-43q-51 0 -45 45zM248 852l100 719q6 47 58 47h43q51 0 45 -47l-101 -719q-6 -45 -57 -45h-43q-51 0 -45 45z" />
<glyph unicode="&#xa7;" horiz-adv-x="1130" d="M96 -61l4 30q6 49 50 49h155q43 0 37 -49l-2 -18q-12 -110 32 -156.5t160 -46.5q135 0 188.5 49t53.5 150q0 58 -33 102t-85 73t-115.5 56.5t-127 60.5t-115.5 75t-85 111t-33 159q0 125 41 218.5t146 155.5q-101 87 -101 234q0 64 8.5 116t29.5 103t60 88.5t95.5 67 t141 44.5t192.5 15q230 0 332 -90.5t81 -257.5l-6 -51q-6 -49 -51 -49h-156q-43 0 -37 49l7 39q15 95 -34.5 138.5t-160.5 43.5q-134 0 -189 -49.5t-55 -149.5q0 -58 33 -102t85 -73t115.5 -56.5t127 -60.5t115.5 -75t85 -111t33 -159q0 -265 -184 -374q98 -88 98 -234 q0 -106 -24.5 -182t-82.5 -134.5t-162 -88t-255 -29.5q-234 0 -335 94.5t-77 274.5zM408 668q-14 -113 43 -158q44 -36 115 -79.5t124 -63.5q54 -21 74 -21q49 0 81 41t40 98l4 29q18 122 -51 164q-160 98 -248 141q-44 19 -64 19q-47 0 -76 -42t-38 -100z" />
<glyph unicode="&#xa8;" horiz-adv-x="796" d="M287 1454l18 125q6 49 53 49h129q47 0 41 -49l-18 -125q-6 -49 -53 -49h-129q-47 0 -41 49zM694 1454l19 125q6 49 53 49h131q47 0 41 -49l-18 -125q-6 -49 -54 -49h-131q-47 0 -41 49z" />
<glyph unicode="&#xa9;" horiz-adv-x="1796" d="M180 688q0 177 50.5 329.5t138.5 263.5t207.5 190t258.5 118t289 39q154 0 284 -46t226.5 -132.5t150.5 -220t54 -299.5q0 -177 -50 -329.5t-138.5 -263.5t-207.5 -190t-258 -118t-290 -39q-154 0 -284 46t-226.5 132.5t-150.5 220t-54 299.5zM338 702q0 -139 44 -248 t122 -178t182.5 -105t228.5 -36t237 30.5t210.5 94.5t169.5 155t113 219.5t41 280.5q0 139 -44 248t-122.5 178.5t-184 105.5t-231.5 36q-123 0 -235.5 -31t-209.5 -95t-168.5 -155t-112 -219.5t-40.5 -280.5zM637 719l25 170q16 117 48.5 196t86 125.5t121.5 66t163 19.5 q168 0 256 -71.5t62 -223.5l-6 -32q-6 -41 -39 -41h-121q-35 0 -29 41l6 39q13 91 -20 128.5t-125 37.5q-88 0 -133 -48t-60 -155l-47 -336q-15 -108 16.5 -155.5t119.5 -47.5q92 0 135 38.5t57 129.5l6 39q3 21 12 30t27 9h121q35 0 29 -39l-7 -33q-51 -297 -399 -297 q-127 0 -199 36.5t-100 127.5t-6 246z" />
<glyph unicode="&#xaa;" horiz-adv-x="829" d="M240 1126l22 172q28 181 103 255.5t208 74.5q122 0 175 -80l8 4l6 37q3 31 35 31h92q25 0 22 -31l-94 -688h29q29 0 26 -31l-6 -34q-6 -31 -32 -31h-152q-28 0 -25 31l5 36l-7 5q-78 -78 -198 -78q-133 0 -188.5 73.5t-28.5 253.5zM397 1069q-12 -88 15 -128t100 -40 q72 0 110 40t52 128l41 303q10 81 -18 116.5t-101 35.5q-72 0 -109 -39.5t-49 -128.5z" />
<glyph unicode="&#xab;" horiz-adv-x="905" d="M139 472q-4 22 2 50l11 70q4 25 6 33.5t12 24.5t27 30l282 231q24 17 29 17q16 0 6 -54l-4 -22q-5 -31 -12 -45t-37 -49l-172 -191l-4 -20l118 -189q22 -34 25 -50.5t-2 -49.5l-2 -22q-7 -54 -21 -54q-5 0 -22 17l-219 231q-19 20 -23 42zM542.5 472q-3.5 22 2.5 50 l10 70q4 25 6 33.5t12 24.5t27 30l283 231q24 17 28 17q17 0 7 -54l-5 -22q-5 -31 -12 -45t-37 -49l-172 -191l-4 -20l119 -189q21 -34 24 -51t-2 -49l-2 -22q-7 -54 -20 -54q-6 0 -23 17l-219 231q-19 20 -22.5 42z" />
<glyph unicode="&#xac;" horiz-adv-x="1277" d="M201 784l12 76q6 49 53 49h973q45 0 39 -49l-72 -510q-6 -49 -53 -49h-80q-47 0 -41 49l53 383h-843q-47 0 -41 51z" />
<glyph unicode="&#xad;" horiz-adv-x="907" d="M186 610l13 76q6 51 53 51h612q45 0 39 -51l-10 -76q-6 -49 -53 -49h-613q-47 0 -41 49z" />
<glyph unicode="&#xae;" horiz-adv-x="1796" d="M180 688q0 177 50.5 329.5t138.5 263.5t207.5 190t258.5 118t289 39q154 0 284 -46t226.5 -132.5t150.5 -220t54 -299.5q0 -177 -50 -329.5t-138.5 -263.5t-207.5 -190t-258 -118t-290 -39q-154 0 -284 46t-226.5 132.5t-150.5 220t-54 299.5zM338 702q0 -139 44 -248 t122 -178t182.5 -105t228.5 -36t237 30.5t210.5 94.5t169.5 155t113 219.5t41 280.5q0 139 -44 248t-122.5 178.5t-184 105.5t-231.5 36q-123 0 -235.5 -31t-209.5 -95t-168.5 -155t-112 -219.5t-40.5 -280.5zM647 346l119 846h-33q-27 0 -24 31l6 45q3 30 33 30h344 q172 0 235.5 -63t40.5 -215l-4 -27q-14 -95 -48.5 -153t-96.5 -88q38 -38 45 -115l34 -291q2 -13 -5 -22t-21 -9h-105q-17 0 -23 4.5t-9 26.5l-39 305q-4 35 -20.5 49.5t-45.5 14.5h-166l-51 -369q-6 -31 -31 -31h-110q-28 0 -25 31zM881 815h137q86 0 125 32t49 114l12 90 q11 78 -18.5 109.5t-114.5 31.5h-137z" />
<glyph unicode="&#xaf;" horiz-adv-x="948" d="M287 1454l12 76q6 51 51 51h692q45 0 39 -51l-10 -76q-6 -49 -53 -49h-692q-45 0 -39 49z" />
<glyph unicode="&#xb0;" horiz-adv-x="692" d="M262 1317l4 24q26 160 96.5 223.5t212.5 63.5t197.5 -64.5t30.5 -222.5l-4 -24q-26 -161 -96.5 -224t-210.5 -63q-144 0 -199.5 64t-30.5 223zM408 1282q-12 -87 10 -121.5t88 -34.5q62 0 93.5 34.5t43.5 121.5l12 94q12 87 -9 121.5t-83 34.5q-67 0 -99 -34.5 t-44 -121.5z" />
<glyph unicode="&#xb1;" horiz-adv-x="1380" d="M100 49l11 76q6 51 53 51h1100q47 0 41 -51l-13 -76q-6 -49 -53 -49h-1100q-45 0 -39 49zM231 985l13 74q6 51 51 51h463l65 461q6 47 56 47h75q51 0 45 -47l-65 -461h461q50 0 41 -51l-13 -74q-6 -51 -53 -51h-461l-65 -463q-6 -45 -58 -45h-75q-49 0 -43 45l65 463 h-463q-48 0 -39 51z" />
<glyph unicode="&#xb2;" horiz-adv-x="618" d="M223 938l8 57q11 75 51 131.5t90 89.5t99 60.5t85.5 62.5t41.5 78q6 48 6 62q0 39 -17 54t-55 15q-48 0 -71.5 -24t-32.5 -86l-6 -41q-4 -21 -23 -21h-80q-9 0 -14 5t-4 12q8 54 19.5 89.5t36.5 72t71.5 55t114.5 18.5q184 0 184 -162q0 -53 -18 -95.5t-48 -71t-66 -53 t-74.5 -47.5t-72 -48.5t-59.5 -63t-35 -83.5l-2 -9h279q19 0 16 -22l-4 -33q-3 -22 -22 -22h-381q-20 0 -17 20z" />
<glyph unicode="&#xb3;" horiz-adv-x="602" d="M242 1120l2 19q3 22 24 22h82q20 0 17 -22l-7 -45q-7 -55 10.5 -77t67.5 -22q47 0 70.5 22t30.5 77l6 45q9 61 -9 83.5t-71 22.5h-27q-19 0 -16 21l4 32q3 21 23 21h30q48 0 73 22t32 80l4 31q7 54 -9.5 76t-62.5 22t-69.5 -22.5t-30.5 -75.5l-4 -33q-3 -22 -23 -22h-80 q-21 0 -18 22l2 11q17 93 69.5 145.5t167.5 52.5q108 0 150.5 -46t32.5 -124l-4 -31q-12 -99 -86 -145q57 -51 45 -166l-2 -24q-8 -79 -66.5 -126.5t-169.5 -47.5q-114 0 -156.5 51t-31.5 151z" />
<glyph unicode="&#xb4;" horiz-adv-x="673" d="M289 1477q0 25 35 49l354 246q18 12 39 12t39 -35l55 -104q8 -16 8 -25q0 -14 -5 -21.5t-23 -17.5q-3 -2 -73 -31.5t-168.5 -70.5t-156.5 -64q-23 -10 -43 -10q-26 0 -37 18l-18 31q-6 12 -6 23z" />
<glyph unicode="&#xb5;" horiz-adv-x="1298" d="M104 -416l220 1559h-48q-24 0 -32.5 11.5t-5.5 37.5l6 55q6 49 55 49h266q45 0 39 -49l-115 -825q-20 -141 22 -204.5t157 -63.5t174.5 63t79.5 205l114 825q6 49 58 49h172q45 0 39 -49l-154 -1093h47q47 0 41 -50l-8 -55q-6 -49 -53 -49h-238q-47 0 -41 49l8 64l-8 4 q-109 -121 -270 -121q-135 0 -201 41l-63 -453q-6 -49 -56 -49h-164q-47 0 -41 49z" />
<glyph unicode="&#xb6;" horiz-adv-x="1454" d="M200.5 848.5q-17.5 98.5 0.5 245.5l2 18q18 142 62 239.5t120 156.5t176.5 84.5t239.5 25.5h747q43 0 37 -49l-14 -107q-6 -49 -51 -49h-410l-258 -1829q-6 -49 -55 -49h-129q-47 0 -41 49l139 996h-111q-139 0 -230 25.5t-149 85t-75.5 158zM1028 -416l234 1653 q6 51 51 51h131q47 0 41 -51l-234 -1653q-6 -49 -53 -49h-131q-45 0 -39 49z" />
<glyph unicode="&#xb7;" horiz-adv-x="514" d="M178 651q0 80 59 136.5t136 56.5q67 0 109 -43t42 -109q0 -79 -60 -134.5t-140 -55.5q-63 0 -104.5 42.5t-41.5 106.5z" />
<glyph unicode="&#xb8;" horiz-adv-x="604" d="M29 -342h141q0 -29 22 -49.5t64 -20.5q56 0 84.5 38.5t28.5 97.5q0 94 -80 94q-78 0 -111 -70h-135q-8 0 -11.5 6.5t-0.5 16.5l75 223q6 22 25 22h102q19 0 13 -22l-37 -107q31 20 58 27.5t73 7.5q78 0 125 -49.5t47 -136.5q0 -111 -71 -183.5t-199 -72.5 q-104 0 -159.5 52t-53.5 126z" />
<glyph unicode="&#xb9;" horiz-adv-x="475" d="M223 938l4 35q3 22 25 22h78l61 443q3 22 -18 22h-54q-21 0 -18 23l4 30q2 12 17 21q21 11 112 76q11 8 21 8h63q22 0 19 -21l-84 -602h75q20 0 17 -22l-4 -35q-3 -20 -25 -20h-276q-20 0 -17 20z" />
<glyph unicode="&#xba;" horiz-adv-x="786" d="M248 1139l20 143q28 193 111.5 269.5t243.5 76.5q64 0 110 -10.5t81.5 -34.5t52 -64t22.5 -99t-8 -138l-21 -143q-28 -194 -110.5 -269t-243.5 -75q-107 0 -167.5 30t-84.5 106.5t-6 207.5zM408 1067q-12 -90 14 -130t98 -40q73 0 110.5 40t49.5 130l41 287 q12 91 -14 130.5t-99 39.5q-72 0 -109.5 -40t-49.5 -130z" />
<glyph unicode="&#xbb;" horiz-adv-x="905" d="M145 236l2 22q3 35 10.5 49t41.5 51l172 189l2 20l-117 191q-23 37 -26.5 49.5t1.5 44.5l5 22q1 7 3 18t2.5 15.5t2.5 10.5t4.5 8t5.5 2q8 0 25 -17l217 -231q19 -19 22 -41.5t-2 -46.5l-10 -70q-4 -24 -7 -36t-12 -27t-26 -29l-283 -231q-24 -17 -28 -17q-12 0 -5 54z M548 226q0 3 0.5 5.5t0.5 4.5l2 22q3 35 10 49t41 51l172 189l2 20l-117 191q-22 36 -25.5 49t1.5 45l4 22q1 7 3 18t2.5 15.5t2.5 10.5t4.5 8t5.5 2q8 0 25 -17l217 -231q19 -19 22.5 -41.5t-1.5 -46.5l-11 -70q-4 -24 -7 -36t-12 -27t-26 -29l-282 -231q-24 -17 -29 -17 q-11 0 -5 44z" />
<glyph unicode="&#xbc;" horiz-adv-x="1585" d="M164 678l6 43q3 31 31 31h106l88 624q6 35 -22 35h-74q-26 0 -23 31l5 31q2 16 20 28l152 103q20 14 32 14h84q31 0 25 -31l-117 -835h105q30 0 24 -31l-6 -43q-3 -31 -33 -31h-381q-25 0 -22 31zM296 10q2 8 4 12t7 15q1035 1530 1043 1544q15 23 28.5 33.5t23.5 12 t30 1.5h53q26 0 26 -18q0 -5 -12 -29q-1030 -1530 -1040 -1544q-23 -33 -37.5 -40t-44.5 -7h-51q-12 0 -19 3t-10 6t-1 11zM911 240l7 45q0 9 6 18l462 639q19 29 50 29h114q28 0 25 -27l-88 -631h63q28 0 25 -28l-6 -45q-3 -31 -33 -31h-66l-24 -180q-3 -29 -33 -29h-113 q-25 0 -22 29l25 180h-367q-28 0 -25 31zM1098 313h219l55 383z" />
<glyph unicode="&#xbd;" horiz-adv-x="1652" d="M164 678l6 43q3 31 31 31h106l88 624q6 35 -22 35h-74q-26 0 -23 31l5 31q2 16 20 28l152 103q20 14 32 14h84q31 0 25 -31l-117 -835h105q30 0 24 -31l-6 -43q-3 -31 -33 -31h-381q-25 0 -22 31zM285.5 4q-3.5 14 13.5 33q1030 1530 1040 1544q15 23 28.5 33.5t23.5 12 t30 1.5h54q48 0 14 -47q-1030 -1530 -1040 -1544q-23 -33 -37.5 -40t-42.5 -7h-52q-28 0 -31.5 14zM1006 29l12 75q12 76 44 138t75 103.5t93 76.5t99 65t90 61t70.5 72t36.5 91q13 86 -12.5 120.5t-94.5 34.5q-61 0 -92 -34.5t-43 -120.5l-8 -56q-3 -28 -33 -28h-108 q-11 0 -17.5 6t-5.5 16q6 57 16.5 100.5t34 87t58.5 71.5t91 45.5t130 17.5q254 0 254 -219q0 -73 -24.5 -131t-65 -98t-90 -74t-102 -66.5t-98.5 -68t-81.5 -87t-48.5 -114.5l-2 -9h379q26 0 20 -32l-6 -43q-3 -29 -31 -29h-518q-25 0 -22 29z" />
<glyph unicode="&#xbe;" horiz-adv-x="1685" d="M199 928l4 24q6 31 30 31h111q28 0 25 -31l-9 -61q-10 -76 15.5 -107.5t93.5 -31.5q65 0 96 31t43 108l10 61q13 85 -12 116.5t-96 31.5h-39q-25 0 -22 30l6 41q3 31 30 31h43q69 0 103 31.5t43 114.5l4 36q9 77 -13.5 108.5t-86.5 31.5q-65 0 -98.5 -32t-43.5 -108 l-6 -43q-3 -30 -33 -30h-106q-29 0 -23 30l2 13q10 61 30 107.5t56 86t96 60t142 20.5q150 0 211 -63.5t45 -169.5l-6 -41q-21 -140 -119 -201q89 -79 63 -231l-6 -33q-41 -242 -325 -242q-304 0 -258 281zM391 8q0 6 15 29q1030 1530 1040 1544q15 23 28.5 33.5t23.5 12 t30 1.5h51q31 0 31 -18q0 -3 -13 -29q-1030 -1530 -1042 -1544q-15 -23 -28 -33.5t-22.5 -12t-29.5 -1.5h-51q-33 0 -33 18zM1014 240l4 43q0 5 10 20l461 639q22 29 41 29h121q27 0 24 -27l-88 -631h66q27 0 24 -28l-6 -45q-3 -31 -33 -31h-67l-25 -180q-3 -29 -33 -29 h-112q-26 0 -23 29l25 180h-365q-27 0 -24 31zM1200 313h219l54 383z" />
<glyph unicode="&#xbf;" horiz-adv-x="1120" d="M98 324q0 70 29 130t76 104.5t104.5 86t117.5 83t111 85t88.5 102.5t47.5 127l8 54q6 49 53 49h162q45 0 39 -49l-8 -54q-12 -83 -49 -154.5t-87 -123t-108 -98t-113.5 -86.5t-100.5 -80t-73 -88.5t-28 -102.5q0 -80 50 -117.5t163 -37.5q131 0 191 52.5t83 186.5l6 33 q9 49 51 49h181q42 0 36 -37q-11 -87 -32.5 -152.5t-63.5 -123t-104.5 -94t-157.5 -57.5t-221 -21q-127 0 -219 28.5t-140.5 78t-70 105.5t-21.5 122zM729 1444l16 125q6 49 54 49h162q44 0 38 -49l-16 -125q-6 -49 -53 -49h-162q-45 0 -39 49z" />
<glyph unicode="&#xc0;" horiz-adv-x="1249" d="M33 49l606 1393h-61q-45 0 -39 51l12 76q6 49 51 49h348q45 0 54 -49l235 -1520q8 -49 -35 -49h-176q-14 0 -20 1t-14 5t-12 14.5t-7 28.5l-43 291h-537l-123 -291q-14 -34 -26.5 -41.5t-40.5 -7.5h-148q-46 0 -24 49zM469 516h436l-110 766zM614 1931q0 12 15 35l84 105 q27 34 49 34q23 0 35 -12l288 -246q21 -21 21 -39t-14 -32l-27 -31q-17 -19 -43 -19q-17 0 -39 11q-159 71 -350 166q-19 13 -19 28z" />
<glyph unicode="&#xc1;" horiz-adv-x="1249" d="M33 49l606 1393h-61q-45 0 -39 51l12 76q6 49 51 49h348q45 0 54 -49l235 -1520q8 -49 -35 -49h-176q-14 0 -20 1t-14 5t-12 14.5t-7 28.5l-43 291h-537l-123 -291q-14 -34 -26.5 -41.5t-40.5 -7.5h-148q-46 0 -24 49zM469 516h436l-110 766zM629 1798q0 26 33 49 l356 246q18 12 37 12q24 0 41 -34l55 -105q6 -12 6 -24q0 -14 -4.5 -21.5t-22.5 -17.5q-3 -2 -73.5 -31.5t-169 -70.5t-156.5 -64q-26 -11 -43 -11q-23 0 -35 19l-18 31q-6 12 -6 22z" />
<glyph unicode="&#xc2;" horiz-adv-x="1249" d="M33 49l606 1393h-61q-45 0 -39 51l12 76q6 49 51 49h348q45 0 54 -49l235 -1520q8 -49 -35 -49h-176q-14 0 -20 1t-14 5t-12 14.5t-7 28.5l-43 291h-537l-123 -291q-14 -34 -26.5 -41.5t-40.5 -7.5h-148q-46 0 -24 49zM459 1737q0 8 20 28l266 250q23 21 42.5 27t48.5 6 h110q29 0 46 -6t34 -27l195 -250q12 -15 12 -24q0 -10 -12.5 -12.5t-42.5 -2.5h-82q-25 0 -37.5 6t-36.5 31l-150 152l-194 -152q-31 -25 -46 -31t-40 -6h-82q-51 0 -51 11zM469 516h436l-110 766z" />
<glyph unicode="&#xc3;" horiz-adv-x="1249" d="M33 49l606 1393h-61q-45 0 -39 51l12 76q6 49 51 49h348q45 0 54 -49l235 -1520q8 -49 -35 -49h-176q-14 0 -20 1t-14 5t-12 14.5t-7 28.5l-43 291h-537l-123 -291q-14 -34 -26.5 -41.5t-40.5 -7.5h-148q-46 0 -24 49zM438 1792q-10 13 2 25q83 86 157.5 122.5 t162.5 36.5q48 0 99.5 -25t102.5 -50t97 -25q14 0 26.5 1t24.5 5t20.5 6t20 9t16.5 9.5t16.5 11.5t14 11t14.5 12t13 11q26 22 43 0q5 -7 24 -37q12 -19 0 -31q-80 -86 -154 -122t-163 -36q-54 0 -98 16t-68 34.5t-59 34.5t-74 16q-24 0 -44.5 -4t-39.5 -14.5t-28.5 -16.5 t-29.5 -22t-24 -19q-29 -21 -43 -4q-9 11 -29 45zM469 516h436l-110 766z" />
<glyph unicode="&#xc4;" horiz-adv-x="1249" d="M33 49l606 1393h-61q-45 0 -39 51l12 76q6 49 51 49h348q45 0 54 -49l235 -1520q8 -49 -35 -49h-176q-14 0 -20 1t-14 5t-12 14.5t-7 28.5l-43 291h-537l-123 -291q-14 -34 -26.5 -41.5t-40.5 -7.5h-148q-46 0 -24 49zM469 516h436l-110 766zM551 1776l16 125q6 49 56 49 h129q45 0 39 -49l-17 -125q-6 -50 -55 -50h-129q-45 0 -39 50zM958 1776l17 125q6 49 55 49h131q45 0 39 -49l-16 -125q-6 -50 -56 -50h-131q-45 0 -39 50z" />
<glyph unicode="&#xc5;" horiz-adv-x="1249" d="M33 49l606 1393h-61q-45 0 -39 51l12 76q6 49 51 49h348q45 0 54 -49l235 -1520q8 -49 -35 -49h-176q-14 0 -20 1t-14 5t-12 14.5t-7 28.5l-43 291h-537l-123 -291q-14 -34 -26.5 -41.5t-40.5 -7.5h-148q-46 0 -24 49zM469 516h436l-110 766zM676 1919q0 97 76 169.5 t174 72.5q81 0 134.5 -56t53.5 -137q0 -97 -76 -169.5t-174 -72.5q-81 0 -134.5 56t-53.5 137zM795 1931q0 -37 24.5 -62.5t61.5 -25.5q46 0 81 34t35 79q0 37 -25 62.5t-63 25.5q-45 0 -79.5 -34t-34.5 -79z" />
<glyph unicode="&#xc6;" horiz-adv-x="1495" d="M35 49l606 1393h-74q-43 0 -37 51l11 76q6 49 51 49h1032q47 0 41 -49l-10 -76q-6 -51 -56 -51h-462l-86 -619h272q45 0 39 -51l-10 -76q-6 -49 -54 -49h-272l-65 -471h462q45 0 39 -51l-10 -76q-6 -49 -55 -49h-692q-43 0 -37 49l41 291h-312l-123 -291q-21 -49 -69 -49 h-146q-46 0 -24 49zM473 516h260l129 914z" />
<glyph unicode="&#xc7;" horiz-adv-x="1210" d="M178 539l76 540q21 156 65.5 261.5t118 169t171 91t233.5 27.5q108 0 186 -17t136 -55.5t87 -100.5t39.5 -151.5t-6.5 -209.5l-4 -35q-6 -49 -55 -49h-176q-45 0 -39 49l8 67q23 179 -20 247.5t-177 68.5q-135 0 -197.5 -69.5t-88.5 -252.5l-89 -622q-26 -182 17.5 -252 t179.5 -70q135 0 198.5 67.5t86.5 239.5l10 76q6 49 55 49h176q45 0 39 -49l-4 -41q-18 -149 -62 -251.5t-119.5 -163t-175 -87t-237.5 -26.5q-33 0 -49 2l-37 -105q30 19 58.5 27t74.5 8q76 0 123 -50t47 -136q0 -111 -70 -183.5t-200 -72.5q-104 0 -159.5 52t-53.5 126 h141q0 -29 22 -49.5t64 -20.5q56 0 84.5 38.5t28.5 97.5q0 94 -80 94q-77 0 -110 -70h-136q-8 0 -12 6.5t0 16.5l78 235q-163 36 -222 160.5t-24 372.5z" />
<glyph unicode="&#xc8;" horiz-adv-x="995" d="M156 696l12 76q6 51 53 51h55l105 746q6 49 53 49h690q47 0 41 -49l-10 -76q-6 -51 -55 -51h-463l-86 -619h272q45 0 39 -51l-10 -76q-6 -49 -53 -49h-273l-65 -471h463q45 0 39 -51l-11 -76q-6 -49 -55 -49h-690q-45 0 -39 49l84 598h-55q-47 0 -41 49zM535 1931 q0 18 14 35l86 105q27 34 49 34q23 0 35 -12l287 -246q20 -17 20 -39q0 -18 -14 -32l-27 -31q-17 -19 -41 -19q-17 0 -39 11q-177 78 -352 166q-18 12 -18 28z" />
<glyph unicode="&#xc9;" horiz-adv-x="995" d="M156 696l12 76q6 51 53 51h55l105 746q6 49 53 49h690q47 0 41 -49l-10 -76q-6 -51 -55 -51h-463l-86 -619h272q45 0 39 -51l-10 -76q-6 -49 -53 -49h-273l-65 -471h463q45 0 39 -51l-11 -76q-6 -49 -55 -49h-690q-45 0 -39 49l84 598h-55q-47 0 -41 49zM559 1798 q0 24 35 49l354 246q18 12 39 12q22 0 39 -34l55 -105q9 -18 9 -24q0 -14 -5.5 -21.5t-23.5 -17.5q-3 -2 -72.5 -31.5t-168 -70.5t-156.5 -64q-26 -11 -43 -11q-25 0 -37 19l-19 31q-6 12 -6 22z" />
<glyph unicode="&#xca;" horiz-adv-x="995" d="M156 696l12 76q6 51 53 51h55l105 746q6 49 53 49h690q47 0 41 -49l-10 -76q-6 -51 -55 -51h-463l-86 -619h272q45 0 39 -51l-10 -76q-6 -49 -53 -49h-273l-65 -471h463q45 0 39 -51l-11 -76q-6 -49 -55 -49h-690q-45 0 -39 49l84 598h-55q-47 0 -41 49zM410 1737 q0 10 18 28l268 250q23 21 41 27t47 6h111q29 0 45.5 -6t32.5 -27l196 -250q15 -19 15 -24q0 -10 -13 -12.5t-43 -2.5h-81q-25 0 -39 6t-37 31l-150 152l-192 -152q-31 -25 -46 -31t-40 -6h-82q-51 0 -51 11z" />
<glyph unicode="&#xcb;" horiz-adv-x="995" d="M156 696l12 76q6 51 53 51h55l105 746q6 49 53 49h690q47 0 41 -49l-10 -76q-6 -51 -55 -51h-463l-86 -619h272q45 0 39 -51l-10 -76q-6 -49 -53 -49h-273l-65 -471h463q45 0 39 -51l-11 -76q-6 -49 -55 -49h-690q-45 0 -39 49l84 598h-55q-47 0 -41 49zM487 1776l19 125 q6 49 53 49h129q47 0 41 -49l-18 -125q-6 -50 -54 -50h-129q-47 0 -41 50zM895 1776l18 125q6 49 54 49h131q47 0 41 -49l-19 -125q-6 -50 -53 -50h-131q-47 0 -41 50z" />
<glyph unicode="&#xcc;" horiz-adv-x="548" d="M145 49l215 1520q6 49 52 49h182q45 0 39 -49l-215 -1520q-6 -49 -51 -49h-183q-45 0 -39 49zM279 1931q0 14 14 35l84 105q27 34 49 34q23 0 35 -12l289 -246q20 -20 20 -39q0 -18 -14 -32l-27 -31q-17 -19 -43 -19q-17 0 -39 11q-177 78 -352 166q-16 11 -16 28z" />
<glyph unicode="&#xcd;" horiz-adv-x="548" d="M145 49l215 1520q6 49 52 49h182q45 0 39 -49l-215 -1520q-6 -49 -51 -49h-183q-45 0 -39 49zM270 1798q0 23 33 49l356 246q18 12 39 12q24 0 41 -34l56 -105q6 -12 6 -24q0 -14 -5.5 -21.5t-23.5 -17.5q-3 -2 -72.5 -31.5t-168 -70.5t-156.5 -64q-26 -11 -43 -11 q-23 0 -35 19l-18 31q-9 18 -9 22z" />
<glyph unicode="&#xce;" horiz-adv-x="548" d="M137 1737q0 7 21 28l266 250q23 21 41 27t47 6h111q29 0 45.5 -6t33.5 -27l197 -250q12 -15 12 -24q0 -10 -12.5 -12.5t-42.5 -2.5h-82q-25 0 -37.5 6t-36.5 31l-149 152l-195 -152q-32 -24 -47 -30.5t-39 -6.5h-82q-51 0 -51 11zM145 49l213 1520q6 49 54 49h182 q43 0 37 -49l-213 -1520q-6 -49 -51 -49h-183q-45 0 -39 49z" />
<glyph unicode="&#xcf;" horiz-adv-x="548" d="M145 49l215 1520q6 49 52 49h182q45 0 39 -49l-215 -1520q-6 -49 -51 -49h-183q-45 0 -39 49zM213 1776l16 125q6 49 56 49h129q45 0 39 -49l-17 -125q-6 -50 -55 -50h-129q-45 0 -39 50zM621 1776l16 125q6 49 55 49h131q45 0 39 -49l-16 -125q-6 -50 -55 -50h-132 q-44 0 -38 50z" />
<glyph unicode="&#xd0;" horiz-adv-x="1343" d="M115 49l10 76q6 51 55 51h56l73 520h-149q-45 0 -39 49l10 76q6 49 53 49h150l80 572h-56q-47 0 -41 51l13 76q6 49 53 49h555q289 0 394 -108t67 -377l-92 -648q-38 -269 -173 -377t-423 -108h-555q-47 0 -41 49zM510 176h225q139 0 203.5 53t83.5 183l113 796 q19 128 -32 181t-190 53h-225l-80 -572h244q45 0 39 -49l-10 -76q-6 -49 -54 -49h-243z" />
<glyph unicode="&#xd1;" horiz-adv-x="1308" d="M145 49l215 1520q6 49 52 49h180q16 0 23 -0.5t15 -5t12.5 -13.5t8.5 -26l314 -1088l153 1084q6 49 51 49h183q45 0 39 -49l-213 -1520q-6 -49 -54 -49h-180q-29 0 -39 6.5t-18 38.5l-318 1085l-151 -1081q-6 -49 -51 -49h-183q-45 0 -39 49zM483 1792q-11 14 0 25 q83 86 157.5 122.5t162.5 36.5q48 0 100 -25t103.5 -50t97.5 -25q14 0 26.5 1t24.5 5t20.5 6t20 9t16.5 9.5t16.5 11.5t14 11t14.5 12t13 11q26 22 43 0q5 -7 24 -37q12 -19 0 -31q-80 -86 -154 -122t-163 -36q-54 0 -98 16t-68 34.5t-59 34.5t-74 16q-24 0 -44.5 -4 t-39.5 -14.5t-28.5 -16.5t-29.5 -22t-24 -19q-29 -21 -43 -4q-9 11 -29 45z" />
<glyph unicode="&#xd2;" horiz-adv-x="1273" d="M168 322.5q-10 92.5 10 216.5l76 540q21 156 66.5 261.5t122 169t177.5 91t242 27.5q94 0 165.5 -12t129.5 -38t94.5 -68.5t59 -103.5t23.5 -142t-11 -185l-76 -540q-21 -155 -67.5 -261t-124 -169.5t-179 -91t-243.5 -27.5q-113 0 -194 17t-141.5 56.5t-90 103 t-39.5 156zM453 498q-26 -183 18 -252.5t188 -69.5q145 0 210.5 69.5t91.5 252.5l86 622q26 183 -19 252.5t-190 69.5q-144 0 -208.5 -69.5t-90.5 -252.5zM653 1931q0 16 15 35l86 105q27 34 49 34t37 -12l284 -246q23 -19 23 -39q0 -15 -17 -32l-26 -31q-17 -19 -41 -19 q-17 0 -39 11q-177 78 -352 166q-19 13 -19 28z" />
<glyph unicode="&#xd3;" horiz-adv-x="1273" d="M168 322.5q-10 92.5 10 216.5l76 540q21 156 66.5 261.5t122 169t177.5 91t242 27.5q94 0 165.5 -12t129.5 -38t94.5 -68.5t59 -103.5t23.5 -142t-11 -185l-76 -540q-21 -155 -67.5 -261t-124 -169.5t-179 -91t-243.5 -27.5q-113 0 -194 17t-141.5 56.5t-90 103 t-39.5 156zM453 498q-26 -183 18 -252.5t188 -69.5q145 0 210.5 69.5t91.5 252.5l86 622q26 183 -19 252.5t-190 69.5q-144 0 -208.5 -69.5t-90.5 -252.5zM635 1798q0 24 35 49l354 246q18 12 39 12q22 0 39 -34l55 -105q8 -16 8 -24q0 -14 -5 -21.5t-23 -17.5 q-3 -2 -73 -31.5t-168.5 -70.5t-156.5 -64q-26 -11 -43 -11q-25 0 -37 19l-18 31q-6 12 -6 22z" />
<glyph unicode="&#xd4;" horiz-adv-x="1273" d="M168 322.5q-10 92.5 10 216.5l76 540q21 156 66.5 261.5t122 169t177.5 91t242 27.5q94 0 165.5 -12t129.5 -38t94.5 -68.5t59 -103.5t23.5 -142t-11 -185l-76 -540q-21 -155 -67.5 -261t-124 -169.5t-179 -91t-243.5 -27.5q-113 0 -194 17t-141.5 56.5t-90 103 t-39.5 156zM453 498q-26 -183 18 -252.5t188 -69.5q145 0 210.5 69.5t91.5 252.5l86 622q26 183 -19 252.5t-190 69.5q-144 0 -208.5 -69.5t-90.5 -252.5zM494 1737q0 10 18 28l268 250q23 21 41 27t47 6h111q29 0 46 -6t34 -27l196 -250q13 -16 13 -24q0 -10 -13 -12.5 t-43 -2.5h-82q-25 0 -38 6t-37 31l-150 152l-192 -152q-31 -25 -46 -31t-40 -6h-82q-51 0 -51 11z" />
<glyph unicode="&#xd5;" horiz-adv-x="1273" d="M168 322.5q-10 92.5 10 216.5l76 540q21 156 66.5 261.5t122 169t177.5 91t242 27.5q94 0 165.5 -12t129.5 -38t94.5 -68.5t59 -103.5t23.5 -142t-11 -185l-76 -540q-21 -155 -67.5 -261t-124 -169.5t-179 -91t-243.5 -27.5q-113 0 -194 17t-141.5 56.5t-90 103 t-39.5 156zM453 498q-26 -183 18 -252.5t188 -69.5q145 0 210.5 69.5t91.5 252.5l86 622q26 183 -19 252.5t-190 69.5q-144 0 -208.5 -69.5t-90.5 -252.5zM467 1792q-11 14 0 25q83 86 157 122.5t162 36.5q48 0 99.5 -25t102.5 -50t97 -25q14 0 26.5 1t24.5 5t20.5 6t20 9 t16.5 9.5t16.5 11.5t14 11t14.5 12t13 11q26 22 43 0q23 -31 27 -37q12 -19 0 -31q-80 -86 -154 -122t-163 -36q-54 0 -98 16t-68 34.5t-59 34.5t-74 16q-24 0 -44.5 -4t-39.5 -14.5t-28.5 -16.5t-29.5 -22t-24 -19q-29 -21 -43 -4q-9 11 -29 45z" />
<glyph unicode="&#xd6;" horiz-adv-x="1273" d="M168 322.5q-10 92.5 10 216.5l76 540q21 156 66.5 261.5t122 169t177.5 91t242 27.5q94 0 165.5 -12t129.5 -38t94.5 -68.5t59 -103.5t23.5 -142t-11 -185l-76 -540q-21 -155 -67.5 -261t-124 -169.5t-179 -91t-243.5 -27.5q-113 0 -194 17t-141.5 56.5t-90 103 t-39.5 156zM453 498q-26 -183 18 -252.5t188 -69.5q145 0 210.5 69.5t91.5 252.5l86 622q26 183 -19 252.5t-190 69.5q-144 0 -208.5 -69.5t-90.5 -252.5zM567 1776l19 125q6 49 53 49h129q47 0 41 -49l-18 -125q-6 -50 -54 -50h-129q-47 0 -41 50zM975 1776l18 125 q6 49 54 49h131q47 0 41 -49l-19 -125q-6 -50 -53 -50h-131q-47 0 -41 50z" />
<glyph unicode="&#xd7;" horiz-adv-x="1118" d="M131 274q0 21 19 37l374 326l-282 328q-11 15 -11 26q0 21 23 41l63 53q22 19 39 19q18 0 29 -14l279 -328l374 325q18 15 35 15t31 -17l47 -53q12 -15 12 -33q0 -16 -20 -34l-371 -328l279 -326q12 -15 12 -28q0 -17 -25 -39l-59 -54q-21 -18 -37 -18q-18 0 -31 16 l-282 326l-371 -328q-17 -14 -33 -14q-20 0 -35 18l-45 54q-14 14 -14 30z" />
<glyph unicode="&#xd8;" horiz-adv-x="1273" d="M47 -125q0 7 14 31l158 235q-81 126 -41 398l76 540q21 156 66.5 261.5t122 169t177.5 91t242 27.5q207 0 318 -61l96 141q17 25 32 36t25 13t33 2h72q32 0 32 -20q0 -10 -14 -31l-168 -250q71 -131 35 -379l-76 -540q-21 -155 -67.5 -261t-124 -169.5t-179 -91 t-243.5 -27.5q-193 0 -299 53l-94 -137q-17 -25 -31 -36t-24.5 -13t-32.5 -2h-70q-35 0 -35 20zM449 481l587 873q-41 88 -200 88q-144 0 -207.5 -69t-89.5 -253zM469 246q47 -70 190 -70q145 0 210.5 69.5t91.5 252.5l83 600z" />
<glyph unicode="&#xd9;" horiz-adv-x="1284" d="M193 354q0 81 12 185l145 1030q6 49 53 49h183q45 0 39 -49l-150 -1071q-26 -183 15 -252.5t176 -69.5q139 0 200.5 69t87.5 253l150 1071q6 49 53 49h178q43 0 37 -49l-143 -1030q-21 -155 -66 -261t-119.5 -169.5t-172 -91t-232.5 -27.5q-90 0 -158.5 12t-123.5 38 t-88.5 68.5t-54.5 103.5t-21 142zM657 1931q0 16 15 35l86 105q27 34 49 34t37 -12l284 -246q23 -19 23 -39q0 -16 -16 -32l-27 -31q-17 -19 -41 -19q-17 0 -39 11q-177 78 -352 166q-19 13 -19 28z" />
<glyph unicode="&#xda;" horiz-adv-x="1284" d="M193 354q0 81 12 185l145 1030q6 49 53 49h183q45 0 39 -49l-150 -1071q-26 -183 15 -252.5t176 -69.5q139 0 200.5 69t87.5 253l150 1071q6 49 53 49h178q43 0 37 -49l-143 -1030q-21 -155 -66 -261t-119.5 -169.5t-172 -91t-232.5 -27.5q-90 0 -158.5 12t-123.5 38 t-88.5 68.5t-54.5 103.5t-21 142zM639 1798q0 24 35 49l354 246q18 12 39 12q22 0 39 -34l55 -105q8 -16 8 -24q0 -14 -5 -21.5t-23 -17.5q-3 -2 -73 -31.5t-168.5 -70.5t-156.5 -64q-26 -11 -43 -11q-24 0 -36 19l-19 31q-6 12 -6 22z" />
<glyph unicode="&#xdb;" horiz-adv-x="1284" d="M193 354q0 81 12 185l145 1030q6 49 53 49h183q45 0 39 -49l-150 -1071q-26 -183 15 -252.5t176 -69.5q139 0 200.5 69t87.5 253l150 1071q6 49 53 49h178q43 0 37 -49l-143 -1030q-21 -155 -66 -261t-119.5 -169.5t-172 -91t-232.5 -27.5q-90 0 -158.5 12t-123.5 38 t-88.5 68.5t-54.5 103.5t-21 142zM500 1737q0 10 18 28l268 250q23 21 41 27t47 6h111q29 0 46 -6t34 -27l197 -250q12 -15 12 -24q0 -10 -12.5 -12.5t-42.5 -2.5h-82q-25 0 -39 6t-37 31l-150 152l-192 -152q-31 -25 -46 -31t-40 -6h-82q-51 0 -51 11z" />
<glyph unicode="&#xdc;" horiz-adv-x="1284" d="M193 354q0 81 12 185l145 1030q6 49 53 49h183q45 0 39 -49l-150 -1071q-26 -183 15 -252.5t176 -69.5q139 0 200.5 69t87.5 253l150 1071q6 49 53 49h178q43 0 37 -49l-143 -1030q-21 -155 -66 -261t-119.5 -169.5t-172 -91t-232.5 -27.5q-90 0 -158.5 12t-123.5 38 t-88.5 68.5t-54.5 103.5t-21 142zM586 1776l18 125q6 49 53 49h129q47 0 41 -49l-18 -125q-6 -50 -53 -50h-129q-47 0 -41 50zM993 1776l19 125q6 49 53 49h131q47 0 41 -49l-18 -125q-6 -50 -54 -50h-131q-47 0 -41 50z" />
<glyph unicode="&#xdd;" horiz-adv-x="1187" d="M238 1569q-15 49 34 49h181q25 0 34 -7t19 -42l211 -725l418 725q20 34 32.5 41.5t38.5 7.5h166q46 0 19 -49l-580 -991l-74 -529q-6 -49 -53 -49h-180q-47 0 -41 49l76 533zM592 1798q0 24 35 49l354 246q18 12 39 12q22 0 39 -34l55 -105q8 -16 8 -24q0 -14 -5 -21.5 t-23 -17.5q-3 -2 -73 -31.5t-168.5 -70.5t-156.5 -64q-26 -11 -43 -11q-25 0 -37 19l-18 31q-6 12 -6 22z" />
<glyph unicode="&#xde;" horiz-adv-x="1300" d="M143 49l215 1520q6 49 54 49h180q47 0 41 -49l-33 -232h293q289 0 394.5 -108t64.5 -375l-11 -66q-28 -187 -96 -293t-186.5 -151t-313.5 -45h-292l-35 -250q-6 -49 -53 -49h-181q-47 0 -41 49zM477 475h293q140 0 204.5 53t84.5 189l31 211q19 128 -32 180.5t-190 52.5 h-293z" />
<glyph unicode="&#xdf;" horiz-adv-x="1298" d="M61 49l11 76q6 51 55 51h55l127 909q22 156 64 259t114.5 167t172 90.5t243.5 26.5q231 0 345 -82t114 -280q0 -76 -13.5 -140t-31.5 -103t-45.5 -72.5t-46 -47t-42.5 -29t-26 -16.5q168 -89 123 -364l-10 -64q-25 -165 -95 -259t-187.5 -132.5t-307.5 -38.5 q-45 0 -39 49l10 76q6 51 58 51q139 0 203.5 51t82.5 183l19 137q18 130 -32 180.5t-187 50.5q-27 0 -36.5 12.5t-6.5 38.5l6 52q6 49 57 49q159 0 215.5 69t56.5 248q0 117 -48 159t-162 42q-134 0 -195 -56t-84 -212l-160 -1131q-6 -49 -53 -49h-283q-47 0 -41 49z" />
<glyph unicode="&#xe0;" d="M154.5 307q-7.5 88 11.5 207l39 268q21 147 63 249t105.5 162.5t142.5 87t184 26.5q191 0 277 -127l12 8l8 59q6 49 54 49h145q45 0 39 -49l-154 -1093h49q45 0 39 -50l-8 -55q-6 -49 -53 -49h-240q-47 0 -41 49l9 57l-11 9q-115 -125 -311 -125q-83 0 -145 16.5 t-110.5 53.5t-72.5 98t-31.5 149zM420 422q-20 -142 21.5 -205t156.5 -63q116 0 175 63t79 205l68 479q19 126 -27 184t-158 58q-115 0 -173.5 -63.5t-78.5 -205.5zM596 1610q0 14 14 35l84 104q28 35 49 35q23 0 35 -12l289 -246q20 -20 20 -39t-14 -33l-26 -31 q-16 -18 -43 -18q-19 0 -39 10q-168 75 -351 166q-18 12 -18 29z" />
<glyph unicode="&#xe1;" d="M154.5 307q-7.5 88 11.5 207l39 268q21 147 63 249t105.5 162.5t142.5 87t184 26.5q191 0 277 -127l12 8l8 59q6 49 54 49h145q45 0 39 -49l-154 -1093h49q45 0 39 -50l-8 -55q-6 -49 -53 -49h-240q-47 0 -41 49l9 57l-11 9q-115 -125 -311 -125q-83 0 -145 16.5 t-110.5 53.5t-72.5 98t-31.5 149zM420 422q-20 -142 21.5 -205t156.5 -63q116 0 175 63t79 205l68 479q19 126 -27 184t-158 58q-115 0 -173.5 -63.5t-78.5 -205.5zM575 1477q0 25 35 49l357 246q18 12 37 12q22 0 40 -35l56 -104q6 -12 6 -25q0 -14 -5.5 -21.5t-23.5 -17.5 q-3 -2 -72.5 -31.5t-168 -70.5t-156.5 -64q-23 -10 -43 -10q-24 0 -35 18l-18 31q-9 18 -9 23z" />
<glyph unicode="&#xe2;" d="M154.5 307q-7.5 88 11.5 207l39 268q21 147 63 249t105.5 162.5t142.5 87t184 26.5q191 0 277 -127l12 8l8 59q6 49 54 49h145q45 0 39 -49l-154 -1093h49q45 0 39 -50l-8 -55q-6 -49 -53 -49h-240q-47 0 -41 49l9 57l-11 9q-115 -125 -311 -125q-83 0 -145 16.5 t-110.5 53.5t-72.5 98t-31.5 149zM420 422q-20 -142 21.5 -205t156.5 -63q116 0 175 63t79 205l68 479q19 126 -27 184t-158 58q-115 0 -173.5 -63.5t-78.5 -205.5zM434 1415q0 8 21 29l266 250q23 21 41 26.5t47 5.5h111q20 0 31 -1.5t24.5 -8.5t25.5 -22l195 -250 q12 -15 12 -25t-12 -12t-43 -2h-82q-25 0 -37.5 6t-36.5 31l-149 151l-195 -151q-31 -25 -46 -31t-40 -6h-82q-51 0 -51 10z" />
<glyph unicode="&#xe3;" d="M154.5 307q-7.5 88 11.5 207l39 268q21 147 63 249t105.5 162.5t142.5 87t184 26.5q191 0 277 -127l12 8l8 59q6 49 54 49h145q45 0 39 -49l-154 -1093h49q45 0 39 -50l-8 -55q-6 -49 -53 -49h-240q-47 0 -41 49l9 57l-11 9q-115 -125 -311 -125q-83 0 -145 16.5 t-110.5 53.5t-72.5 98t-31.5 149zM410 1470q-11 14 0 25q83 86 158 123t163 37q38 0 79.5 -16t71.5 -34.5t70.5 -34.5t77.5 -16q14 0 26.5 1t24.5 5t20.5 6t20 9t16.5 9.5t16.5 11.5t14 11t14.5 12t13 11q26 22 43 0q11 -15 25 -37q12 -18 0 -30q-80 -86 -154 -122t-164 -36 q-54 0 -98 15.5t-68 34.5t-59 34.5t-74 15.5q-24 0 -44.5 -4t-40 -14.5t-28 -15.5t-29.5 -22t-24 -19q-29 -22 -43 -5q-4 6 -28 45zM420 422q-20 -142 21.5 -205t156.5 -63q116 0 175 63t79 205l68 479q19 126 -27 184t-158 58q-115 0 -173.5 -63.5t-78.5 -205.5z" />
<glyph unicode="&#xe4;" d="M154.5 307q-7.5 88 11.5 207l39 268q21 147 63 249t105.5 162.5t142.5 87t184 26.5q191 0 277 -127l12 8l8 59q6 49 54 49h145q45 0 39 -49l-154 -1093h49q45 0 39 -50l-8 -55q-6 -49 -53 -49h-240q-47 0 -41 49l9 57l-11 9q-115 -125 -311 -125q-83 0 -145 16.5 t-110.5 53.5t-72.5 98t-31.5 149zM420 422q-20 -142 21.5 -205t156.5 -63q116 0 175 63t79 205l68 479q19 126 -27 184t-158 58q-115 0 -173.5 -63.5t-78.5 -205.5zM512 1454l16 125q6 49 56 49h129q45 0 39 -49l-17 -125q-6 -49 -55 -49h-129q-45 0 -39 49zM920 1454 l16 125q6 49 55 49h131q45 0 39 -49l-16 -125q-6 -49 -55 -49h-132q-44 0 -38 49z" />
<glyph unicode="&#xe5;" d="M154.5 307q-7.5 88 11.5 207l39 268q21 147 63 249t105.5 162.5t142.5 87t184 26.5q191 0 277 -127l12 8l8 59q6 49 54 49h145q45 0 39 -49l-154 -1093h49q45 0 39 -50l-8 -55q-6 -49 -53 -49h-240q-47 0 -41 49l9 57l-11 9q-115 -125 -311 -125q-83 0 -145 16.5 t-110.5 53.5t-72.5 98t-31.5 149zM420 422q-20 -142 21.5 -205t156.5 -63q116 0 175 63t79 205l68 479q19 126 -27 184t-158 58q-115 0 -173.5 -63.5t-78.5 -205.5zM631 1597q0 97 76 169.5t174 72.5q81 0 134.5 -56t53.5 -136q0 -97 -76 -169.5t-174 -72.5q-81 0 -134.5 56 t-53.5 136zM750 1610q0 -37 24 -62.5t62 -25.5q45 0 80.5 33.5t35.5 78.5q0 37 -25 62.5t-63 25.5q-45 0 -79.5 -33.5t-34.5 -78.5z" />
<glyph unicode="&#xe6;" horiz-adv-x="1816" d="M119 334l4 31q10 74 41.5 131t77 91.5t101.5 60t116.5 40t120.5 26.5t114.5 25.5t97.5 32t71 49.5t34 74l8 68q12 96 -27.5 138t-152.5 42q-115 0 -167 -50t-71 -173l-8 -52q-9 -53 -55 -53h-164q-23 0 -31.5 12.5t-5.5 40.5l6 45q14 105 58.5 181.5t114.5 122.5t158 68 t196 22q229 0 327 -95q123 95 355 95q93 0 162.5 -15.5t125.5 -50.5t86 -92t41.5 -140.5t-6.5 -195.5l-14 -100q-6 -51 -55 -60l-658 -88l-20 -141q-20 -143 21.5 -206.5t156.5 -63.5q122 0 179.5 50.5t76.5 172.5l8 51q5 28 17 40.5t36 12.5h160q48 0 39 -53l-6 -43 q-15 -106 -61 -183.5t-118 -123t-160 -67t-196 -21.5q-162 0 -259.5 45.5t-135.5 150.5q-135 -196 -399 -196q-178 0 -270.5 90t-69.5 254zM385 354q-13 -106 30 -153t142 -47q118 0 185.5 59t80.5 156l41 284l-12 9q-46 -24 -113.5 -43.5t-121 -33.5t-105 -34.5t-83 -55.5 t-38.5 -87zM1139 709l450 55l15 110q20 142 -23 205.5t-164 63.5q-115 0 -175.5 -64t-80.5 -205z" />
<glyph unicode="&#xe7;" horiz-adv-x="1130" d="M158 265q-19 109 6 270l33 227q22 156 66 262t115 168t161.5 88.5t216.5 26.5q223 0 338 -95t86 -301l-6 -43q-9 -53 -52 -53h-159q-50 0 -41 53l8 52q19 121 -26 172t-169 51q-115 0 -174.5 -64t-79.5 -207l-63 -448q-20 -143 21.5 -206.5t156.5 -63.5q122 0 179.5 50.5 t76.5 172.5l8 51q5 28 17.5 40.5t37.5 12.5h160q46 0 37 -53l-6 -43q-15 -106 -61 -183.5t-118 -123t-160 -67t-196 -21.5q-37 0 -55 2l-37 -105q31 20 58 27.5t73 7.5q78 0 125 -49.5t47 -136.5q0 -111 -71 -183.5t-199 -72.5q-104 0 -159.5 52t-53.5 126h141 q0 -29 21.5 -49.5t62.5 -20.5q57 0 86 38.5t29 97.5q0 94 -80 94q-77 0 -113 -70h-135q-17 0 -10 23l80 239q-95 25 -149.5 85.5t-73.5 169.5z" />
<glyph unicode="&#xe8;" horiz-adv-x="1138" d="M153.5 349q0.5 81 12.5 186l31 227q21 156 65.5 262t116 168t162.5 88.5t217 26.5q93 0 162.5 -15.5t125.5 -50.5t86 -92t41.5 -140.5t-6.5 -195.5l-14 -100q-7 -54 -55 -60l-660 -88l-20 -141q-20 -143 22.5 -206.5t157.5 -63.5q122 0 179.5 50.5t76.5 172.5l8 51 q5 28 17 40.5t36 12.5h160q43 0 37 -53l-4 -43q-12 -105 -58 -183t-119 -123.5t-162.5 -67t-197.5 -21.5q-83 0 -146.5 11t-115.5 37t-83.5 67t-52 102t-20 142zM457 705l450 59l17 110q20 142 -23 205.5t-164 63.5q-115 0 -175.5 -64t-80.5 -205zM545 1610q0 14 14 35 l84 104q28 35 51 35q21 0 33 -12l289 -246q20 -20 20 -39t-14 -33l-27 -31q-16 -18 -41 -18q-21 0 -41 10q-159 71 -350 166q-18 12 -18 29z" />
<glyph unicode="&#xe9;" horiz-adv-x="1138" d="M153.5 349q0.5 81 12.5 186l31 227q21 156 65.5 262t116 168t162.5 88.5t217 26.5q93 0 162.5 -15.5t125.5 -50.5t86 -92t41.5 -140.5t-6.5 -195.5l-14 -100q-7 -54 -55 -60l-660 -88l-20 -141q-20 -143 22.5 -206.5t157.5 -63.5q122 0 179.5 50.5t76.5 172.5l8 51 q5 28 17 40.5t36 12.5h160q43 0 37 -53l-4 -43q-12 -105 -58 -183t-119 -123.5t-162.5 -67t-197.5 -21.5q-83 0 -146.5 11t-115.5 37t-83.5 67t-52 102t-20 142zM457 705l450 59l17 110q20 142 -23 205.5t-164 63.5q-115 0 -175.5 -64t-80.5 -205zM526 1477q0 26 33 49 l356 246q18 12 39 12q22 0 39 -35l56 -104q6 -12 6 -25q0 -14 -4.5 -21.5t-22.5 -17.5q-3 -2 -73.5 -31.5t-169 -70.5t-156.5 -64q-23 -10 -41 -10q-26 0 -37 18l-19 31q-6 12 -6 23z" />
<glyph unicode="&#xea;" horiz-adv-x="1138" d="M153.5 349q0.5 81 12.5 186l31 227q21 156 65.5 262t116 168t162.5 88.5t217 26.5q93 0 162.5 -15.5t125.5 -50.5t86 -92t41.5 -140.5t-6.5 -195.5l-14 -100q-7 -54 -55 -60l-660 -88l-20 -141q-20 -143 22.5 -206.5t157.5 -63.5q122 0 179.5 50.5t76.5 172.5l8 51 q5 28 17 40.5t36 12.5h160q43 0 37 -53l-4 -43q-12 -105 -58 -183t-119 -123.5t-162.5 -67t-197.5 -21.5q-83 0 -146.5 11t-115.5 37t-83.5 67t-52 102t-20 142zM383 1415q0 9 23 29l264 250q22 21 41 26.5t49 5.5h110q29 0 46 -5.5t34 -26.5l195 -250q12 -15 12 -25 t-11.5 -12t-41.5 -2h-82q-25 0 -39 6t-37 31l-149 151l-195 -151q-31 -25 -45 -31t-39 -6h-82q-53 0 -53 10zM457 705l450 59l17 110q20 142 -23 205.5t-164 63.5q-115 0 -175.5 -64t-80.5 -205z" />
<glyph unicode="&#xeb;" horiz-adv-x="1138" d="M153.5 349q0.5 81 12.5 186l31 227q21 156 65.5 262t116 168t162.5 88.5t217 26.5q93 0 162.5 -15.5t125.5 -50.5t86 -92t41.5 -140.5t-6.5 -195.5l-14 -100q-6 -51 -55 -60l-660 -88l-20 -141q-20 -143 22.5 -206.5t157.5 -63.5q122 0 179.5 50.5t76.5 172.5l8 51 q5 28 17 40.5t36 12.5h160q43 0 37 -53l-4 -43q-12 -105 -58 -183t-119 -123.5t-162.5 -67t-197.5 -21.5q-83 0 -146.5 11t-115.5 37t-83.5 67t-52 102t-20 142zM457 705l452 59l15 110q20 142 -23 205.5t-164 63.5q-115 0 -175.5 -64t-80.5 -205zM461 1454l16 125 q6 49 55 49h130q24 0 32.5 -11.5t5.5 -37.5l-16 -125q-6 -49 -53 -49h-129q-47 0 -41 49zM868 1454l17 125q6 49 55 49h131q45 0 39 -49l-16 -125q-6 -49 -54 -49h-131q-47 0 -41 49z" />
<glyph unicode="&#xec;" horiz-adv-x="550" d="M160 49l153 1094h-49q-45 0 -39 49l6 55q6 49 56 49h268q45 0 39 -49l-168 -1198q-6 -49 -53 -49h-172q-47 0 -41 49zM240 1610q0 11 16 35l84 104q28 35 49 35q23 0 35 -12l289 -246q20 -20 20 -39t-14 -33l-27 -31q-16 -18 -43 -18q-19 0 -39 10q-177 78 -352 166 q-18 12 -18 29z" />
<glyph unicode="&#xed;" horiz-adv-x="550" d="M160 49l153 1094h-49q-45 0 -39 49l6 55q6 49 56 49h268q45 0 39 -49l-168 -1198q-6 -49 -53 -49h-172q-47 0 -41 49zM258 1477q0 23 33 49l356 246q18 12 39 12q24 0 41 -35l55 -104q6 -12 6 -25q0 -14 -5 -21.5t-23 -17.5q-3 -2 -73 -31.5t-168.5 -70.5t-156.5 -64 q-23 -10 -43 -10q-23 0 -34 18l-19 31q-8 11 -8 23z" />
<glyph unicode="&#xee;" horiz-adv-x="550" d="M102 1415q0 8 21 29l266 250q23 21 41 26.5t47 5.5h111q29 0 46 -5.5t34 -26.5l196 -250q13 -16 13 -25q0 -10 -12.5 -12t-43.5 -2h-82q-24 0 -36.5 6t-36.5 31l-150 151l-194 -151q-32 -24 -47 -30.5t-39 -6.5h-82q-52 0 -52 10zM160 49l153 1094h-49q-45 0 -39 49l6 55 q6 49 56 49h268q45 0 39 -49l-168 -1198q-6 -49 -53 -49h-172q-47 0 -41 49z" />
<glyph unicode="&#xef;" horiz-adv-x="550" d="M143 1454l19 125q6 49 53 49h129q47 0 41 -49l-18 -125q-6 -49 -54 -49h-129q-47 0 -41 49zM162 49l153 1094h-49q-47 0 -41 49l8 55q6 49 54 49h268q47 0 41 -49l-168 -1198q-6 -49 -55 -49h-172q-45 0 -39 49zM551 1454l18 125q6 49 54 49h131q47 0 41 -49l-19 -125 q-6 -49 -53 -49h-131q-47 0 -41 49z" />
<glyph unicode="&#xf0;" horiz-adv-x="1218" d="M129 271.5q-15 90.5 4 205.5l10 72q39 271 159 390.5t370 119.5q178 0 291 -101l45 320l-226 -104q-18 -9 -26 -9q-23 0 -17 35l9 57q6 49 57 74l211 99q-10 71 -60 102t-147 31h-188q-45 0 -39 49l8 65q6 49 53 49h193q330 0 415 -188l224 104q18 9 26 9q23 0 17 -35 l-9 -60q-6 -46 -57 -71l-170 -80q3 -54 -8 -137l-111 -791q-17 -120 -55 -206.5t-106 -151.5t-174.5 -97t-252.5 -32q-143 0 -239 33t-144 95.5t-63 153zM389 395q-18 -131 31.5 -186t177.5 -55q133 0 200 55t85 186l37 258q18 132 -30.5 187t-176.5 55q-133 0 -201 -55.5 t-86 -186.5z" />
<glyph unicode="&#xf1;" horiz-adv-x="1243" d="M160 49l153 1094h-47q-45 0 -39 49l6 55q6 49 56 49h235q45 0 39 -49l-8 -63l10 -8q121 131 316 131q82 0 143.5 -16t110 -53t73 -98t32.5 -149.5t-11 -208.5l-103 -733q-6 -49 -53 -49h-172q-47 0 -41 49l117 825q20 141 -22.5 205t-157.5 64t-174.5 -63.5t-79.5 -205.5 l-117 -825q-6 -49 -53 -49h-170q-49 0 -43 49zM416 1470q-11 14 0 25q83 86 157 123t162 37q38 0 79.5 -16t72.5 -34.5t71.5 -34.5t77.5 -16q14 0 26.5 1t24.5 5t20.5 6t20 9t16.5 9.5t16.5 11.5t14 11t14.5 12t13 11q26 22 43 0q11 -15 25 -37q12 -18 0 -30 q-80 -86 -154 -122t-164 -36q-54 0 -98 15.5t-68 34.5t-59 34.5t-74 15.5q-24 0 -44.5 -4t-40 -14.5t-28 -15.5t-29.5 -22t-24 -19q-29 -22 -43 -5q-4 6 -28 45z" />
<glyph unicode="&#xf2;" horiz-adv-x="1146" d="M153.5 349q0.5 81 12.5 186l31 227q21 156 65.5 262t116 168t162.5 88.5t217 26.5q84 0 147.5 -11t115.5 -37t84 -67t52 -102t19 -142t-13 -186l-30 -227q-21 -156 -65 -262t-115.5 -168t-163 -88.5t-218.5 -26.5q-83 0 -146.5 11t-115.5 37t-83.5 67t-52 102t-20 142z M418 422q-20 -142 21.5 -205t156.5 -63t174.5 63t79.5 205l63 452q20 142 -21.5 205.5t-156.5 63.5t-174.5 -63.5t-79.5 -205.5zM567 1610q0 12 15 35l84 104q28 35 51 35q21 0 33 -12l288 -246q21 -21 21 -39t-15 -33l-26 -31q-16 -18 -41 -18q-21 0 -41 10 q-159 71 -350 166q-19 13 -19 29z" />
<glyph unicode="&#xf3;" horiz-adv-x="1146" d="M153.5 349q0.5 81 12.5 186l31 227q21 156 65.5 262t116 168t162.5 88.5t217 26.5q84 0 147.5 -11t115.5 -37t84 -67t52 -102t19 -142t-13 -186l-30 -227q-21 -156 -65 -262t-115.5 -168t-163 -88.5t-218.5 -26.5q-83 0 -146.5 11t-115.5 37t-83.5 67t-52 102t-20 142z M418 422q-20 -142 21.5 -205t156.5 -63t174.5 63t79.5 205l63 452q20 142 -21.5 205.5t-156.5 63.5t-174.5 -63.5t-79.5 -205.5zM528 1477q0 26 33 49l357 246q18 12 38 12q22 0 39 -35l56 -104q6 -12 6 -25q0 -14 -4.5 -21.5t-22.5 -17.5q-3 -2 -73.5 -31.5t-169 -70.5 t-156.5 -64q-23 -10 -41 -10q-26 0 -37 18l-18 31q-7 14 -7 23z" />
<glyph unicode="&#xf4;" horiz-adv-x="1146" d="M153.5 349q0.5 81 12.5 186l31 227q21 156 65.5 262t116 168t162.5 88.5t217 26.5q84 0 147.5 -11t115.5 -37t84 -67t52 -102t19 -142t-13 -186l-30 -227q-21 -156 -65 -262t-115.5 -168t-163 -88.5t-218.5 -26.5q-83 0 -146.5 11t-115.5 37t-83.5 67t-52 102t-20 142z M408 1415q0 10 22 29l264 250q22 21 41 26.5t49 5.5h111q29 0 46 -5.5t34 -26.5l194 -250q13 -16 13 -25q0 -10 -12 -12t-42 -2h-81q-25 0 -39 6t-37 31l-150 151l-194 -151q-31 -25 -45 -31t-39 -6h-82q-53 0 -53 10zM418 422q-20 -142 21.5 -205t156.5 -63t174.5 63 t79.5 205l63 452q20 142 -21.5 205.5t-156.5 63.5t-174.5 -63.5t-79.5 -205.5z" />
<glyph unicode="&#xf5;" horiz-adv-x="1146" d="M153.5 349q0.5 81 12.5 186l31 227q21 156 65.5 262t116 168t162.5 88.5t217 26.5q84 0 147.5 -11t115.5 -37t84 -67t52 -102t19 -142t-13 -186l-30 -227q-21 -156 -65 -262t-115.5 -168t-163 -88.5t-218.5 -26.5q-83 0 -146.5 11t-115.5 37t-83.5 67t-52 102t-20 142z M381 1470q-10 13 2 25q83 86 157 123t162 37q38 0 79.5 -16t71.5 -34.5t70.5 -34.5t77.5 -16q14 0 26.5 1t24.5 5t20.5 6t20 9t16.5 9.5t16.5 11.5t14 11t14.5 12t13 11q26 22 43 0q23 -31 27 -37q11 -17 -2 -30q-81 -86 -153.5 -122t-161.5 -36q-54 0 -98.5 15.5t-69 34.5 t-60 34.5t-74.5 15.5q-24 0 -44.5 -4t-39.5 -14.5t-28.5 -16t-29 -21.5t-23.5 -19q-29 -22 -43 -5q-9 11 -29 45zM418 422q-20 -142 21.5 -205t156.5 -63t174.5 63t79.5 205l63 452q20 142 -21.5 205.5t-156.5 63.5t-174.5 -63.5t-79.5 -205.5z" />
<glyph unicode="&#xf6;" horiz-adv-x="1146" d="M153.5 349q0.5 81 12.5 186l31 227q21 156 65.5 262t116 168t162.5 88.5t217 26.5q84 0 147.5 -11t115.5 -37t83.5 -67t51.5 -102t19.5 -142t-12.5 -186l-30 -227q-21 -156 -65 -262t-115.5 -168t-163 -88.5t-218.5 -26.5q-83 0 -146.5 11t-115.5 37t-83.5 67t-52 102 t-20 142zM418 422q-20 -142 21.5 -205t156.5 -63t174.5 63t79.5 205l63 452q20 142 -21.5 205.5t-156.5 63.5t-174.5 -63.5t-79.5 -205.5zM483 1454l17 125q6 49 55 49h129q45 0 39 -49l-16 -125q-6 -49 -54 -49h-129q-47 0 -41 49zM891 1454l16 125q6 49 56 49h131 q45 0 39 -49l-17 -125q-6 -49 -53 -49h-131q-47 0 -41 49z" />
<glyph unicode="&#xf7;" horiz-adv-x="878" d="M170 610l12 74q5 27 16.5 39t34.5 12h615q45 0 39 -51l-10 -74q-6 -51 -54 -51h-614q-45 0 -39 51zM354 211l17 125q6 49 55 49h131q47 0 41 -49l-18 -125q-6 -49 -54 -49h-131q-47 0 -41 49zM461 965l16 125q6 49 55 49h132q44 0 38 -49l-16 -125q-6 -50 -55 -50h-131 q-45 0 -39 50z" />
<glyph unicode="&#xf8;" horiz-adv-x="1146" d="M49 -158q0 5 12 29q68 101 160 238q-99 126 -57 426l33 227q22 156 66 262t115 168t161.5 88.5t216.5 26.5q155 0 248 -41q92 138 98 149q32 47 82 47h65q31 0 31 -18q0 -5 -12 -29q-66 -94 -158 -233q95 -127 53 -420l-33 -227q-22 -157 -65.5 -262.5t-114.5 -167.5 t-161.5 -88.5t-217.5 -26.5q-153 0 -239 37l-107 -156q-18 -27 -36 -37t-44 -10h-65q-13 0 -22 5t-9 13zM414 391q261 390 471 701q-48 51 -152 51q-115 0 -173.5 -63.5t-78.5 -205.5zM444 193q42 -39 150 -39q115 0 175.5 63.5t80.5 204.5l65 469q-70 -103 -153 -226 t-178.5 -265t-139.5 -207z" />
<glyph unicode="&#xf9;" horiz-adv-x="1263" d="M206 305.5q-8 88.5 11 208.5l88 629h-49q-47 0 -41 49l8 55q6 49 53 49h269q47 0 41 -49l-117 -825q-20 -142 21.5 -205t156.5 -63q111 0 172 57t78 182l121 854q6 49 53 49h172q47 0 41 -49l-154 -1093h50q45 0 39 -50l-7 -55q-6 -49 -55 -49h-239q-45 0 -39 49l8 60 l-10 6q-119 -125 -312 -125q-82 0 -143 16t-110 53t-73.5 97.5t-32.5 149zM600 1610q0 18 14 35l84 104q28 35 52 35q19 0 34 -12l287 -246q21 -18 21 -39q0 -18 -15 -33l-26 -31q-16 -18 -41 -18q-21 0 -41 10q-168 75 -351 166q-18 12 -18 29z" />
<glyph unicode="&#xfa;" horiz-adv-x="1263" d="M206 305.5q-8 88.5 11 208.5l88 629h-49q-47 0 -41 49l8 55q6 49 53 49h269q47 0 41 -49l-117 -825q-20 -142 21.5 -205t156.5 -63q111 0 172 57t78 182l121 854q6 49 53 49h172q47 0 41 -49l-154 -1093h50q45 0 39 -50l-7 -55q-6 -49 -55 -49h-239q-45 0 -39 49l8 60 l-10 6q-119 -125 -312 -125q-82 0 -143 16t-110 53t-73.5 97.5t-32.5 149zM582 1477q0 27 32 49l357 246q18 12 39 12q20 0 41 -35l53 -104q6 -12 6 -25q0 -14 -4.5 -21.5t-22.5 -17.5q-3 -2 -73.5 -31.5t-169 -70.5t-156.5 -64q-23 -10 -41 -10q-26 0 -37 18l-18 31 q-6 12 -6 23z" />
<glyph unicode="&#xfb;" horiz-adv-x="1263" d="M206 305.5q-8 88.5 11 208.5l88 629h-49q-47 0 -41 49l8 55q6 49 53 49h269q47 0 41 -49l-117 -825q-20 -142 21.5 -205t156.5 -63q111 0 172 57t78 182l121 854q6 49 53 49h172q47 0 41 -49l-154 -1093h50q45 0 39 -50l-7 -55q-6 -49 -55 -49h-239q-45 0 -39 49l8 60 l-10 6q-119 -125 -312 -125q-82 0 -143 16t-110 53t-73.5 97.5t-32.5 149zM438 1415q0 8 21 29l268 250q23 21 41 26.5t47 5.5h111q29 0 46 -5.5t34 -26.5l194 -250q14 -18 14 -25q0 -9 -12.5 -11.5t-42.5 -2.5h-82q-25 0 -39 6t-37 31l-149 151l-195 -151q-31 -25 -45 -31 t-39 -6h-81q-54 0 -54 10z" />
<glyph unicode="&#xfc;" horiz-adv-x="1263" d="M206 305.5q-8 88.5 11 208.5l88 629h-49q-47 0 -41 49l8 55q6 49 53 49h269q47 0 41 -49l-117 -825q-20 -142 21.5 -205t156.5 -63q111 0 172 57t78 182l121 854q6 49 53 49h172q47 0 41 -49l-154 -1093h50q45 0 39 -50l-7 -55q-6 -49 -55 -49h-239q-45 0 -39 49l8 60 l-10 6q-119 -125 -312 -125q-82 0 -143 16t-110 53t-73.5 97.5t-32.5 149zM514 1454l18 125q6 49 54 49h129q47 0 41 -49l-19 -125q-6 -49 -53 -49h-129q-47 0 -41 49zM922 1454l18 125q6 49 53 49h131q47 0 41 -49l-18 -125q-6 -49 -53 -49h-131q-47 0 -41 49z" />
<glyph unicode="&#xfd;" horiz-adv-x="1116" d="M115 -416l22 56q18 49 64 49h59q43 0 69 7.5t47.5 33.5t35 55t39.5 91q5 13 8 20l43 104h-53q-24 0 -35 10t-15 39l-192 1198q-7 49 37 49h162q14 0 20.5 -1t14.5 -5t12 -14.5t6 -28.5l143 -1014l430 1014q14 34 25 41.5t37 7.5h139q46 0 27 -49l-568 -1290 q-33 -74 -54.5 -120.5t-49 -94.5t-48.5 -74.5t-51.5 -53.5t-60 -39.5t-72 -23t-89.5 -13.5t-111 -3h-9q-49 0 -32 49zM512 1477q0 25 35 49l354 246q18 12 39 12q22 0 39 -35l55 -104q8 -16 8 -25q0 -14 -5 -21.5t-23 -17.5q-3 -2 -73 -31.5t-168.5 -70.5t-156.5 -64 q-23 -10 -43 -10q-25 0 -36 18l-19 31q-6 12 -6 23z" />
<glyph unicode="&#xfe;" horiz-adv-x="1193" d="M74 -416l284 2024h-47q-47 0 -41 49l9 55q6 49 55 49h256q47 0 41 -49l-72 -508l6 -6q115 109 293 109q83 0 145 -16.5t110.5 -54t73 -98t32.5 -149t-11 -207.5l-37 -268q-20 -147 -62 -249t-106.5 -162t-144 -86.5t-184.5 -26.5q-179 0 -264 106l-7 -4l-71 -508 q-6 -49 -56 -49h-161q-47 0 -41 49zM461 422q-20 -142 20.5 -205t155.5 -63t175.5 63.5t80.5 204.5l63 452q20 141 -22.5 205t-157.5 64q-110 0 -168 -57t-80 -185z" />
<glyph unicode="&#xff;" horiz-adv-x="1116" d="M115 -416l22 56q18 49 64 49h59q43 0 69 7.5t47.5 33.5t35 55t39.5 91q5 13 8 20l43 104h-53q-24 0 -35 10t-15 39l-192 1198q-7 49 37 49h162q14 0 20.5 -1t14.5 -5t12 -14.5t6 -28.5l143 -1014l430 1014q14 34 25 41.5t37 7.5h139q46 0 27 -49l-568 -1290 q-33 -74 -54.5 -120.5t-49 -94.5t-48.5 -74.5t-51.5 -53.5t-60 -39.5t-72 -23t-89.5 -13.5t-111 -3h-9q-49 0 -32 49zM455 1454l18 125q6 49 53 49h129q47 0 41 -49l-18 -125q-6 -49 -53 -49h-129q-47 0 -41 49zM862 1454l19 125q6 49 53 49h131q47 0 41 -49l-19 -125 q-6 -49 -53 -49h-131q-47 0 -41 49z" />
<glyph unicode="&#x152;" horiz-adv-x="1732" d="M168 322.5q-10 92.5 10 216.5l76 540q21 156 66.5 261.5t122 169t177.5 91t242 27.5q156 0 260 -37q14 27 47 27h693q45 0 39 -49l-11 -76q-6 -51 -53 -51h-463l-88 -619h273q44 0 38 -51l-10 -76q-6 -49 -53 -49h-272l-66 -471h463q45 0 39 -51l-10 -76q-6 -49 -54 -49 h-692q-35 0 -41 25q-104 -35 -268 -35q-113 0 -194 17t-141.5 56.5t-90 103t-39.5 156zM453 498q-26 -183 18 -252.5t188 -69.5q145 0 210.5 69.5t91.5 252.5l86 622q26 183 -19 252.5t-190 69.5q-144 0 -208.5 -69.5t-90.5 -252.5z" />
<glyph unicode="&#x153;" horiz-adv-x="1837" d="M153.5 349q0.5 81 12.5 186l31 227q21 156 65.5 262t116 168t162.5 88.5t217 26.5q239 0 336 -103q125 103 364 103q77 0 138 -10.5t113 -34t86 -61.5t56.5 -93t25 -128t-8.5 -167l-15 -100q-6 -51 -55 -60l-659 -88l-21 -141q-20 -143 22.5 -206.5t157.5 -63.5 q122 0 179.5 50.5t76.5 172.5l9 51q5 28 17 40.5t36 12.5h160q42 0 36 -53l-4 -43q-12 -105 -58 -183t-118.5 -123.5t-162 -67t-197.5 -21.5q-240 0 -336 102q-121 -102 -365 -102q-83 0 -146.5 11t-115.5 37t-83.5 67t-52 102t-20 142zM418 422q-20 -142 21.5 -205 t156.5 -63t174.5 63t79.5 205l63 452q20 142 -21.5 205.5t-156.5 63.5t-174.5 -63.5t-79.5 -205.5zM1159 709l451 55l14 110q20 142 -22.5 205.5t-163.5 63.5q-115 0 -175.5 -64t-80.5 -205z" />
<glyph unicode="&#x178;" horiz-adv-x="1187" d="M238 1569q-15 49 34 49h181q25 0 34 -7t19 -42l211 -725l418 725q20 34 32.5 41.5t38.5 7.5h166q46 0 19 -49l-580 -991l-74 -529q-6 -49 -53 -49h-180q-47 0 -41 49l76 533zM530 1776l19 125q6 49 53 49h129q47 0 41 -49l-18 -125q-6 -50 -54 -50h-129q-47 0 -41 50z M938 1776l18 125q6 49 54 49h131q47 0 41 -49l-19 -125q-6 -50 -53 -50h-131q-47 0 -41 50z" />
<glyph unicode="&#x2c6;" horiz-adv-x="937" d="M281 1415q0 9 20 29l266 250q23 21 41 26.5t47 5.5h111q29 0 46 -5.5t34 -26.5l196 -250q13 -16 13 -25q0 -10 -12.5 -12t-43.5 -2h-81q-25 0 -37.5 6t-36.5 31l-150 151l-194 -151q-32 -24 -47 -30.5t-39 -6.5h-82q-51 0 -51 10z" />
<glyph unicode="&#x2dc;" horiz-adv-x="1017" d="M295 1470q-11 14 0 25q83 86 158 123t163 37q38 0 79.5 -16t71.5 -34.5t70.5 -34.5t77.5 -16q14 0 26.5 1t24.5 5t20.5 6t20 9t16.5 9.5t16.5 11.5t14 11t14.5 12t13 11q26 22 43 0q11 -15 25 -37q12 -18 0 -30q-80 -86 -154 -122t-164 -36q-54 0 -98 15.5t-68 34.5 t-59 34.5t-74 15.5q-24 0 -44.5 -4t-39.5 -14.5t-28.5 -16t-29 -21.5t-23.5 -19q-29 -22 -43 -5q-9 11 -29 45z" />
<glyph unicode="&#x2000;" horiz-adv-x="1080" />
<glyph unicode="&#x2001;" horiz-adv-x="2161" />
<glyph unicode="&#x2002;" horiz-adv-x="1080" />
<glyph unicode="&#x2003;" horiz-adv-x="2161" />
<glyph unicode="&#x2004;" horiz-adv-x="720" />
<glyph unicode="&#x2005;" horiz-adv-x="540" />
<glyph unicode="&#x2006;" horiz-adv-x="360" />
<glyph unicode="&#x2007;" horiz-adv-x="360" />
<glyph unicode="&#x2008;" horiz-adv-x="270" />
<glyph unicode="&#x2009;" horiz-adv-x="432" />
<glyph unicode="&#x200a;" horiz-adv-x="120" />
<glyph unicode="&#x2010;" horiz-adv-x="907" d="M186 610l13 76q6 51 53 51h612q45 0 39 -51l-10 -76q-6 -49 -53 -49h-613q-47 0 -41 49z" />
<glyph unicode="&#x2011;" horiz-adv-x="907" d="M186 610l13 76q6 51 53 51h612q45 0 39 -51l-10 -76q-6 -49 -53 -49h-613q-47 0 -41 49z" />
<glyph unicode="&#x2012;" horiz-adv-x="907" d="M186 610l13 76q6 51 53 51h612q45 0 39 -51l-10 -76q-6 -49 -53 -49h-613q-47 0 -41 49z" />
<glyph unicode="&#x2013;" horiz-adv-x="962" d="M176 571l12 74q9 51 52 51h680q44 0 38 -51l-10 -74q-6 -51 -53 -51h-680q-45 0 -39 51z" />
<glyph unicode="&#x2014;" horiz-adv-x="1699" d="M176 571l12 74q9 51 52 51h1415q24 0 33 -12t6 -39l-11 -74q-6 -51 -53 -51h-1415q-45 0 -39 51z" />
<glyph unicode="&#x2018;" horiz-adv-x="391" d="M252 1217l18 133q2 19 17 45l96 178q17 32 28 38.5t33 6.5h31q21 0 26 -11t-3 -34l-66 -182h23q47 0 41 -50l-19 -124q-6 -52 -53 -52h-131q-47 0 -41 52z" />
<glyph unicode="&#x2019;" horiz-adv-x="380" d="M281 1176q-5 11 4 36l65 183h-22q-47 0 -41 47l18 127q6 49 53 49h131q47 0 41 -49l-20 -135q-3 -26 -14 -45l-97 -177q-17 -33 -28 -40t-33 -7h-31q-21 0 -26 11z" />
<glyph unicode="&#x201a;" horiz-adv-x="407" d="M72 -256l94 256h-29q-49 0 -43 49l19 125q6 49 55 49h135q47 0 41 -49l-20 -135q-3 -23 -13 -43l-125 -252q-11 -22 -21 -32t-17.5 -11.5t-24.5 -1.5h-31q-37 0 -20 45z" />
<glyph unicode="&#x201c;" horiz-adv-x="739" d="M252 1217l18 133q2 19 17 45l96 178q17 32 28 38.5t33 6.5h31q21 0 26 -11t-3 -34l-66 -182h23q47 0 41 -50l-19 -124q-6 -52 -53 -52h-131q-47 0 -41 52zM600 1217l18 133q2 20 13 45l98 178q12 22 22 31.5t17.5 11.5t24.5 2h30q20 0 24.5 -11t-3.5 -34l-66 -182h23 q47 0 41 -50l-19 -124q-6 -52 -53 -52h-129q-47 0 -41 52z" />
<glyph unicode="&#x201d;" horiz-adv-x="727" d="M281 1176q-5 11 4 36l65 183h-22q-47 0 -41 47l18 127q6 49 53 49h131q47 0 41 -49l-20 -135q-3 -26 -14 -45l-97 -177q-17 -33 -28 -40t-33 -7h-31q-21 0 -26 11zM628.5 1176q-4.5 11 4.5 36l65 183h-22q-47 0 -41 47l18 127q6 49 54 49h129q47 0 41 -49l-21 -135 q-3 -26 -14 -45l-94 -177q-12 -23 -22.5 -33t-18 -12t-23.5 -2h-31q-20 0 -24.5 11z" />
<glyph unicode="&#x201e;" horiz-adv-x="761" d="M72 -256l94 256h-29q-49 0 -43 49l19 125q6 49 55 49h135q47 0 41 -49l-20 -135q-3 -23 -13 -43l-125 -252q-11 -22 -21 -32t-17.5 -11.5t-24.5 -1.5h-31q-37 0 -20 45zM426 -256l94 256h-31q-46 0 -40 49l18 125q6 49 53 49h137q47 0 41 -49l-20 -135q-3 -25 -12 -43 l-125 -252q-11 -22 -21 -32t-18 -11.5t-25 -1.5h-31q-37 0 -20 45z" />
<glyph unicode="&#x2022;" horiz-adv-x="727" d="M217 621q0 107 81.5 184.5t188.5 77.5q90 0 147.5 -59t57.5 -146q0 -109 -80 -185.5t-190 -76.5q-88 0 -146.5 58.5t-58.5 146.5z" />
<glyph unicode="&#x2026;" horiz-adv-x="1091" d="M92 49l19 125q6 49 55 49h129q47 0 41 -49l-19 -125q-6 -49 -53 -49h-129q-49 0 -43 49zM440 49l19 125q6 49 53 49h129q47 0 41 -49l-18 -125q-6 -49 -54 -49h-129q-47 0 -41 49zM786 49l19 125q6 49 53 49h131q47 0 41 -49l-18 -125q-6 -49 -54 -49h-131q-47 0 -41 49z " />
<glyph unicode="&#x202f;" horiz-adv-x="432" />
<glyph unicode="&#x2039;" horiz-adv-x="501" d="M140 472.5q-3 22.5 3 49.5l9 70q4 31 12 49.5t33 38.5l282 231q24 17 29 17q16 0 6 -54l-4 -22q-5 -31 -12 -45t-37 -49l-172 -191l-4 -20l118 -189q22 -34 25 -50.5t-2 -49.5l-2 -22q-7 -54 -21 -54q-5 0 -22 17l-219 231q-19 20 -22 42.5z" />
<glyph unicode="&#x203a;" horiz-adv-x="501" d="M145 236l2 22q3 35 10.5 49t41.5 51l172 189l2 20l-117 191q-23 37 -26.5 49.5t1.5 44.5l5 22q1 7 3 18t2.5 15.5t2.5 10.5t4.5 8t5.5 2q8 0 25 -17l217 -231q19 -19 22 -41.5t-2 -46.5l-10 -70q-4 -24 -7 -36t-12 -27t-26 -29l-283 -231q-24 -17 -28 -17q-12 0 -5 54z " />
<glyph unicode="&#x205f;" horiz-adv-x="540" />
<glyph unicode="&#x20ac;" horiz-adv-x="1368" d="M147 639l21 45q21 49 68 49h122l15 109h-148q-45 0 -24 49l20 45q21 49 68 49h104l13 94q21 156 64.5 261.5t116.5 169t170.5 91t233.5 27.5q231 0 341 -90t110 -305q0 -68 -8.5 -105t-20.5 -48t-33 -11h-172q-11 0 -16 4t-8.5 21.5t-4.5 44.5t-1 82q0 122 -48 171.5 t-159 49.5q-136 0 -199 -70t-88 -252l-18 -135h329q23 0 28 -12t-5 -37l-17 -45q-18 -49 -71 -49h-285l-14 -109h309q48 0 27 -49l-21 -45q-21 -49 -69 -49h-267l-12 -92q-25 -183 17.5 -252.5t177.5 -69.5q136 0 199 69.5t89 254.5q6 49 54 49h176q39 0 39 -39 q0 -271 -136 -395.5t-448 -124.5q-186 0 -289.5 50.5t-140.5 171t-6 327.5l8 51h-166q-46 0 -25 49z" />
<glyph unicode="&#x2122;" horiz-adv-x="1726" d="M262 1542l6 47q3 29 33 29h563q30 0 27 -29l-8 -47q-3 -31 -33 -31h-199l-119 -841q-3 -29 -30 -29h-111q-27 0 -24 29l118 841h-198q-28 0 -25 31zM864 670l178 919q6 29 33 29h107q16 0 22 -4t10 -23l117 -602l291 602q9 18 14.5 22.5t18.5 4.5h110q28 0 25 -29 l-82 -919q-3 -29 -29 -29h-106q-28 0 -25 29l54 600l-242 -518q-9 -19 -16.5 -24t-24.5 -5h-49q-16 0 -22 5.5t-9 23.5l-96 522l-117 -604q-6 -29 -33 -29h-106q-26 0 -23 29z" />
<glyph unicode="&#x25fc;" horiz-adv-x="1300" d="M0 0v1300h1300v-1300h-1300z" />
<glyph unicode="&#xfb01;" horiz-adv-x="1181" d="M180 49l154 1094h-96q-45 0 -39 49l6 55q6 49 55 49h94l6 37q38 236 136 332t290 96h127q45 0 39 -49l-6 -55q-6 -49 -55 -49h-139q-49 0 -71.5 -25t-31.5 -88l-28 -199h563q45 0 39 -49l-168 -1198q-6 -49 -54 -49h-172q-47 0 -41 49l154 1094h-342l-154 -1094 q-6 -49 -53 -49h-172q-47 0 -41 49zM995 1524l23 153q6 49 51 49h176q45 0 39 -49l-22 -153q-6 -49 -52 -49h-176q-45 0 -39 49z" />
<glyph unicode="&#xfb02;" horiz-adv-x="1187" d="M180 49l154 1094h-96q-45 0 -39 49l6 55q6 49 55 49h94l6 37q38 236 136 332t290 96h467q45 0 39 -49l-233 -1663q-6 -49 -53 -49h-170q-47 0 -41 49l219 1559h-262q-49 0 -71.5 -25t-31.5 -88l-28 -199h196q45 0 39 -49l-6 -55q-6 -49 -55 -49h-195l-154 -1094 q-6 -49 -53 -49h-172q-47 0 -41 49z" />
</font>
</defs>
</svg>
